<svg id="Layer_1" data-name="Layer 1" xmlns="http://www.w3.org/2000/svg" xmlns:xlink="http://www.w3.org/1999/xlink" viewBox="0 0 1839.74 374.18"><defs><style>.cls-1,.cls-2{stroke:#fff;stroke-miterlimit:10;}.cls-1{fill:url(#linear-gradient);}.cls-15,.cls-2,.cls-6{fill:#fff;}.cls-3{opacity:0.27;}.cls-4{fill:#4d71b7;}.cls-5{fill:#a7c5e7;}.cls-14,.cls-6{font-size:45.6px;font-family:IBMPlexSansKR-Bold, IBM Plex Sans KR;font-weight:700;}.cls-7{font-size:42.01px;}.cls-8{font-size:30.85px;}.cls-9{letter-spacing:-0.02em;}.cls-10{letter-spacing:0em;}.cls-11{letter-spacing:0em;}.cls-12{letter-spacing:0em;}.cls-13{letter-spacing:0.02em;}.cls-14{fill:#283075;}</style><linearGradient id="linear-gradient" x1="1773.32" y1="90.69" x2="-62.32" y2="283.62" gradientUnits="userSpaceOnUse"><stop offset="0" stop-color="#47bfef" stop-opacity="0.2"/><stop offset="0.08" stop-color="#3f99ce" stop-opacity="0.4"/><stop offset="0.22" stop-color="#3568a1" stop-opacity="0.67"/><stop offset="0.39" stop-color="#2e4582" stop-opacity="0.86"/><stop offset="0.59" stop-color="#29306f" stop-opacity="0.97"/><stop offset="0.97" stop-color="#282a6a"/></linearGradient></defs><title>element-box-1</title><rect class="cls-1" x="3" y="5.96" width="1835.74" height="348.64" rx="20.91"/><rect class="cls-2" x="97.88" y="52.74" width="421.02" height="255.09" rx="34.24"/><g class="cls-3"><path class="cls-4" d="M410.43,260.52c-.82.57-1.75.31-2.62.31-15.39,0-30.77,0-46.15,0a6.18,6.18,0,0,0-4.6,1.73,65,65,0,0,1-13.39,9.39,2.52,2.52,0,0,0-1.52,2.61c.08,4.28,0,8.56.06,12.83,0,2-.74,2.79-2.78,2.79q-31.06-.07-62.13,0c-2.07,0-2.76-.84-2.72-2.83.09-4.35,0-8.71.05-13.06a2.19,2.19,0,0,0-1.3-2.29,68.38,68.38,0,0,1-14.11-9.9,4.61,4.61,0,0,0-3.42-1.25q-23.42.06-46.83,0c-.87,0-1.8.26-2.62-.3h50.33c-.08-.49-.06-.67-.13-.76-.45-.51-.92-1-1.39-1.48A69.73,69.73,0,0,1,238.6,231c-1-3.22-2.33-4.64-6-5.18-10-1.48-16.66-7.46-19.18-17.25s.69-18.17,8.67-24.52c1.3-1,1.6-1.85.31-3.05-1.76-1.63-2.17-3.73-2.38-6.08-.67-7.34,1.34-14.38,2.12-21.55a4.82,4.82,0,0,0-2.44-5.19c-.84-2.21-2.65-3.75-3.88-5.7a72.77,72.77,0,0,1-4.34-7.58,7.1,7.1,0,0,1,.51-7.45c12.72-18.77,28-34.87,47.91-46.23a83.81,83.81,0,0,1,31.32-10.08c14-1.81,27.61-.48,40.7,5A75.72,75.72,0,0,1,357.5,93.7c5.67,5.88,8.16,13.27,8.64,21.56,2.65-.42,5.25-1.14,7.91-.57,6.22,1.34,10,5.69,13.17,10.74,4,6.42,6.08,13.58,7.59,20.92a5,5,0,0,0,.64,1.89c.32,2.52.66,5,1,7.56.1.81.64,1.94-1,1.89-1.09,0-2.48.54-2.67-1.42s-.68-4.14-.9-6.22c-.17-1.55-1-1.93-2.4-1.91-4.2.07-8.4,0-12.61,0-6.52,0-13.05.05-19.58,0-1.94,0-2.34.6-1.74,2.4.66,2,1.43,3.93,2.24,5.86a2.85,2.85,0,0,0,3.1,1.95c4.88-.09,9.75,0,14.63,0,.64,0,1.74-.27,1.82.37a15,15,0,0,1-.1,3.28c-.05.48-1.21.26-1.87.26l-44.79-.06a7.54,7.54,0,0,0-3.31.45,113.66,113.66,0,0,1-43.95,10.2c-16,.54-31.38-1.94-45.53-10a5,5,0,0,0-2.56-.71c-2.47,0-5,0-7.42,0-2.84.07-4,1.31-4,4.23,0,2.55,0,5.1,0,7.65,0,4.31.95,5.25,5.29,5.25H387.3c.53,0,1.05,0,1.58,0,2.62-.1,4.13-1.43,4.1-4,0-4,.51-8-.54-12,.48,0,.85-.06,1.22-.06,3.15-.05,3.1-.05,3.07,3.15-.05,5.78,0,11.56-.07,17.33a5,5,0,0,0,1.41,3.58c6.24,7.22,7.88,15.46,4.31,24.3s-10.48,13.67-19.94,14.62c-2,.2-2.89.82-3.47,2.71a73.23,73.23,0,0,1-17.77,29.88c-.41.43-1.19.73-.91,1.77Zm-36.3-29.82a44.49,44.49,0,0,1-7.06,2.22c-12.42,2.2-25,3-37.56,3.85-6.88.45-11.56-1.48-14.12-7.89-1.64-4.09-4.51-5.53-8.81-4.93a4.14,4.14,0,0,0-3.48,2c-1.26,2.21-2.57,4.4-3.87,6.59a8,8,0,0,1-7.45,4.23,266.6,266.6,0,0,1-32.07-2.32c-5.81-.85-11.72-1.32-17.36-4,.13.59.16.81.23,1,.19.57.39,1.14.61,1.69a68.32,68.32,0,0,0,21.23,28.59c16.47,13,35.26,18.05,55.92,14.37,25.54-4.55,43.09-19.43,53.3-43.15.31-.73.81-1.46.47-2.34l.13,0Zm-30.59-82.37H225.87c0,.31,0,.49.06.58a10.59,10.59,0,0,0,.89,1,64.31,64.31,0,0,0,23,14.53c13.4,4.83,27.2,5.54,41.26,4.16a105.85,105.85,0,0,0,43.31-13.95A61,61,0,0,0,343.54,148.33ZM308.29,286.55c9.37,0,18.75-.05,28.13,0,1.79,0,2.35-.52,2.25-2.28-.13-2.39,0-4.8,0-7.2,0-2.57,0-2.57-2.41-1.61a74,74,0,0,1-31.45,5.3,72,72,0,0,1-24.65-5.54c-1.71-.73-2.06-.23-2,1.41.08,2.55.12,5.11,0,7.65-.1,1.78.48,2.28,2.26,2.27C289.68,286.5,299,286.55,308.29,286.55Zm3.77-82.78h0c0,3-.07,6,0,9,.08,2.34,1.49,3.87,3.29,3.87s3.18-1.55,3.3-3.87c.08-1.42,0-2.85.05-4.27,0-.75-.42-1.81.69-2.12A2.63,2.63,0,0,1,322,207a15.55,15.55,0,0,1,2.84,4,17.74,17.74,0,0,0,3.23,4.58,3.12,3.12,0,0,0,4.12.36c1.44-1,1.46-2.36.86-3.8a19.06,19.06,0,0,0-3.51-5.73c-.87-.94-.83-1.45.28-2.23,3-2.08,3.87-4.79,2.91-8a6.92,6.92,0,0,0-6.89-5.1c-3.23-.12-6.46-.11-9.68-.07-2.83,0-4,1.13-4,4S312.06,200.84,312.06,203.77Zm-8.55,12.83a3.2,3.2,0,0,0,3-4.53c-2.26-5.94-4.67-11.82-7-17.73-.82-2.07-2-3.72-4.51-3.75s-3.64,1.77-4.46,3.79q-2.49,6.13-4.91,12.3a42,42,0,0,0-2.13,6.14,2.8,2.8,0,0,0,2,3.52A2.69,2.69,0,0,0,289.1,215a10.88,10.88,0,0,0,1.15-2.67,2.16,2.16,0,0,1,2.64-1.78,9.33,9.33,0,0,0,2.24,0c2.83-.45,4.71.35,5.4,3.41A3.2,3.2,0,0,0,303.51,216.6Zm-71.23,5.61a13.68,13.68,0,0,0-.66-1.31,28.82,28.82,0,0,1-4.78-16.8c.07-5.31,0-10.64,0-16,0-.75.49-1.84-.41-2.21-.62-.27-1.33.5-1.93.93a19.74,19.74,0,0,0,7.79,35.35ZM390,185.88c0,.77-.11,1.49-.11,2.21,0,4.87-.12,9.74,0,14.6.2,6.79-1.23,13.07-5.1,18.72-.09.14-.05.37-.08.58,7.8-1,14.57-8.47,15.55-17C401.24,197,396.64,188.34,390,185.88Zm-53.46-27.37c5.44,0,10.89,0,16.33,0,1.44,0,1.42-.62.93-1.67a29.23,29.23,0,0,1-2.44-7.42c-.31-1.77-1.09-1.69-2.16-.75C345.25,152.18,341,155.29,336.58,158.51Zm-105.69,0c-2-1.64-3.51-2.84-5.15-4.15-.61,4.19-.61,4.19,3.11,4.15Z"/><path class="cls-5" d="M410.43,260.52H360.29c-.28-1,.5-1.34.91-1.77A73.23,73.23,0,0,0,379,228.87c.58-1.89,1.51-2.51,3.47-2.71,9.46-.95,16.37-5.78,19.94-14.62s1.93-17.08-4.31-24.3a5,5,0,0,1-1.41-3.58c.08-5.77,0-11.55.07-17.33,0-3.2.08-3.2-3.07-3.15-.37,0-.74,0-1.22.06,1.05,4,.5,8,.54,12,0,2.6-1.48,3.93-4.1,4-.53,0-1.05,0-1.58,0H229.06c-4.34,0-5.29-.94-5.29-5.25,0-2.55,0-5.1,0-7.65,0-2.92,1.21-4.16,4-4.23,2.47-.05,5,0,7.42,0a5,5,0,0,1,2.56.71c14.15,8,29.51,10.49,45.53,10a113.66,113.66,0,0,0,43.95-10.2,7.54,7.54,0,0,1,3.31-.45l44.79.06c.66,0,1.82.22,1.87-.26a15,15,0,0,0,.1-3.28c-.08-.64-1.18-.37-1.82-.37-4.88,0-9.75-.07-14.63,0a2.85,2.85,0,0,1-3.1-1.95c-.81-1.93-1.58-3.87-2.24-5.86-.6-1.8-.2-2.42,1.74-2.4,6.53.07,13.06,0,19.58,0,4.21,0,8.41.05,12.61,0,1.44,0,2.23.36,2.4,1.91.22,2.08.7,4.14.9,6.22s1.58,1.39,2.67,1.42c1.59.05,1.05-1.08,1-1.89-.3-2.53-.64-5-1-7.56,4.57,0,9.15-.07,13.72,0a7.07,7.07,0,0,1,7.29,7.41q0,48.84,0,97.67C416.46,257.15,414.22,259.76,410.43,260.52Z"/><path class="cls-5" d="M219.73,148.22a4.82,4.82,0,0,1,2.44,5.19c-.78,7.17-2.79,14.21-2.12,21.55.21,2.35.62,4.45,2.38,6.08,1.29,1.2,1,2-.31,3.05-8,6.35-11.21,14.62-8.67,24.52s9.22,15.77,19.18,17.25c3.64.54,4.94,2,6,5.18a69.73,69.73,0,0,0,16.56,27.24c.47.49.94,1,1.39,1.48.07.09.05.27.13.76H206.35c-3.8-.78-6-3.39-6-7.23q0-48.83,0-97.65a7,7,0,0,1,7.26-7.42C211.63,148.17,215.68,148.22,219.73,148.22Z"/><path class="cls-5" d="M374.11,230.65c.34.89-.16,1.62-.47,2.35-10.21,23.72-27.76,38.6-53.3,43.15-20.66,3.68-39.45-1.37-55.92-14.37a68.32,68.32,0,0,1-21.23-28.59c-.22-.55-.42-1.12-.61-1.69-.07-.2-.1-.42-.23-1,5.64,2.65,11.55,3.12,17.36,4a266.6,266.6,0,0,0,32.07,2.32,8,8,0,0,0,7.45-4.23c1.3-2.19,2.61-4.38,3.87-6.59a4.14,4.14,0,0,1,3.48-2c4.3-.6,7.17.84,8.81,4.93,2.56,6.41,7.24,8.34,14.12,7.89,12.59-.81,25.14-1.65,37.56-3.85a44.49,44.49,0,0,0,7.06-2.22Zm-65.3,22.6c1.06-.17,2.64-.3,4.16-.67,5.78-1.43,9.84-5.5,10.52-10.43.17-1.27.18-2.56-1.35-2.89s-2.06.77-2.22,2.13a7.82,7.82,0,0,1-3.61,5.72,13.78,13.78,0,0,1-12.67,1.58c-3.64-1.25-6.29-3.49-6.81-7.57-.16-1.21-.68-2.05-2-1.89s-1.73,1.28-1.6,2.51a10.5,10.5,0,0,0,2.22,5.56C298.74,251.43,303.23,253,308.81,253.25Z"/><path class="cls-5" d="M343.54,148.33a61,61,0,0,1-9.11,6.32,105.85,105.85,0,0,1-43.31,13.95c-14.06,1.38-27.86.67-41.26-4.16a64.31,64.31,0,0,1-23-14.53,10.59,10.59,0,0,1-.89-1c-.07-.09,0-.27-.06-.58Z"/><path class="cls-5" d="M308.29,286.55c-9.31,0-18.61-.05-27.91,0-1.78,0-2.36-.49-2.26-2.27.13-2.54.09-5.1,0-7.65-.06-1.64.29-2.14,2-1.41a72,72,0,0,0,24.65,5.54,74,74,0,0,0,31.45-5.3c2.39-1,2.4-1,2.41,1.61,0,2.4-.1,4.81,0,7.2.1,1.76-.46,2.29-2.25,2.28C327,286.5,317.66,286.55,308.29,286.55Z"/><path class="cls-5" d="M312.06,203.77c0-2.93-.06-5.86,0-8.78s1.2-3.93,4-4c3.22,0,6.45-.05,9.68.07a6.92,6.92,0,0,1,6.89,5.1c1,3.22.06,5.93-2.91,8-1.11.78-1.15,1.29-.28,2.23a19.06,19.06,0,0,1,3.51,5.73c.6,1.44.58,2.82-.86,3.8a3.12,3.12,0,0,1-4.12-.36,17.74,17.74,0,0,1-3.23-4.58,15.55,15.55,0,0,0-2.84-4,2.63,2.63,0,0,0-2.52-.62c-1.11.31-.65,1.37-.69,2.12-.07,1.42,0,2.85-.05,4.27-.12,2.32-1.48,3.87-3.3,3.87s-3.21-1.53-3.29-3.87c-.1-3,0-6,0-9Zm10-7.43v.09c-.75,0-1.5,0-2.25,0-1.27.06-1.1,1.08-1,1.83.1.92-.65,2.38.85,2.62a10.86,10.86,0,0,0,5.33-.36,2,2,0,0,0-.24-3.92A21.56,21.56,0,0,0,322,196.34Z"/><path class="cls-5" d="M303.51,216.6a3.2,3.2,0,0,1-3-2.66c-.69-3.06-2.57-3.86-5.4-3.41a9.33,9.33,0,0,1-2.24,0,2.16,2.16,0,0,0-2.64,1.78A10.88,10.88,0,0,1,289.1,215a2.69,2.69,0,0,1-3.61,1.36,2.8,2.8,0,0,1-2-3.52,42,42,0,0,1,2.13-6.14q2.43-6.17,4.91-12.3c.82-2,1.92-3.81,4.46-3.79s3.69,1.68,4.51,3.75c2.36,5.91,4.77,11.79,7,17.73A3.2,3.2,0,0,1,303.51,216.6ZM295.24,200h-.52c-.47,1.31-.94,2.62-1.4,3.93-.15.42-.31,1,.27,1.1,1,.23,2.18.5,3-.13.65-.49-.07-1.35-.29-2C296,201.88,295.6,200.93,295.24,200Z"/><path class="cls-5" d="M232.28,222.21a19.74,19.74,0,0,1-7.79-35.35c.6-.43,1.31-1.2,1.93-.93.9.37.41,1.46.41,2.21,0,5.32.08,10.65,0,16a28.82,28.82,0,0,0,4.78,16.8A13.68,13.68,0,0,1,232.28,222.21Z"/><path class="cls-5" d="M390,185.88c6.6,2.46,11.2,11.1,10.29,19.09-1,8.55-7.75,16-15.55,17,0-.21,0-.44.08-.58,3.87-5.65,5.3-11.93,5.1-18.72-.15-4.86,0-9.73,0-14.6C389.93,187.37,390,186.65,390,185.88Z"/><path class="cls-5" d="M336.58,158.51c4.39-3.22,8.67-6.33,12.66-9.83,1.07-.94,1.85-1,2.16.75a29.23,29.23,0,0,0,2.44,7.42c.49,1.05.51,1.67-.93,1.67C347.47,158.49,342,158.51,336.58,158.51Z"/><path class="cls-5" d="M230.89,158.51h-2c-3.72,0-3.72,0-3.11-4.15C227.38,155.67,228.87,156.87,230.89,158.51Z"/><polygon class="cls-5" points="374.13 230.7 374.24 230.68 374.11 230.66 374.13 230.7"/><path class="cls-4" d="M308.81,253.25c-5.58-.3-10.07-1.82-13.36-5.95a10.5,10.5,0,0,1-2.22-5.56c-.13-1.23.15-2.34,1.6-2.51s1.84.68,2,1.89c.52,4.08,3.17,6.32,6.81,7.57a13.78,13.78,0,0,0,12.67-1.58,7.82,7.82,0,0,0,3.61-5.72c.16-1.36.63-2.46,2.22-2.13s1.52,1.62,1.35,2.89c-.68,4.93-4.74,9-10.52,10.43C311.45,253,309.87,253.08,308.81,253.25Z"/><path class="cls-4" d="M322,196.34a21.56,21.56,0,0,1,2.67.27,2,2,0,0,1,.24,3.92,10.86,10.86,0,0,1-5.33.36c-1.5-.24-.75-1.7-.85-2.62-.08-.75-.25-1.77,1-1.83.75,0,1.5,0,2.25,0Z"/><path class="cls-4" d="M295.24,200c.36,1,.76,1.91,1.08,2.88.22.67.94,1.53.29,2-.84.63-2,.36-3,.13-.58-.13-.42-.68-.27-1.1.46-1.31.93-2.62,1.4-3.93Z"/></g><text class="cls-6" transform="translate(227.03 148.11)">증강현실<tspan class="cls-7"><tspan x="52.82" y="48.86">AR</tspan></tspan><tspan class="cls-8"><tspan x="-91.46" y="86.42">(</tspan><tspan class="cls-9" x="-81.04" y="86.42">A</tspan><tspan class="cls-10" x="-60.64" y="86.42">UGMENTED REAL</tspan><tspan class="cls-11" x="191.8" y="86.42">I</tspan><tspan class="cls-12" x="205.01" y="86.42">T</tspan><tspan class="cls-13" x="223.12" y="86.42">Y</tspan><tspan x="243.75" y="86.42">)</tspan></tspan></text><text class="cls-14" transform="translate(227.03 148.11)">증강현실<tspan class="cls-7"><tspan x="52.82" y="48.86">AR</tspan></tspan><tspan class="cls-8"><tspan x="-91.46" y="86.42">(</tspan><tspan class="cls-9" x="-81.04" y="86.42">A</tspan><tspan class="cls-10" x="-60.64" y="86.42">UGMENTED REAL</tspan><tspan class="cls-11" x="191.8" y="86.42">I</tspan><tspan class="cls-12" x="205.01" y="86.42">T</tspan><tspan class="cls-13" x="223.12" y="86.42">Y</tspan><tspan x="243.75" y="86.42">)</tspan></tspan></text><path class="cls-15" d="M588.93,126l.41,2.75a69.81,69.81,0,0,1-13.28,1h-3.39V110.24h13.82v2.85h-10.4V126.9A74.49,74.49,0,0,0,588.93,126Zm7.11-18.1v29.4h-3.42v-29.4Z"/><path class="cls-15" d="M612.31,120.53a1.25,1.25,0,0,1,1,.47l6,7-2.58,2.21-6.13-7.41a.67.67,0,0,0-.44-.24.5.5,0,0,0-.37.2,22.36,22.36,0,0,1-2.35,3.58q-1.44,1.81-3.79,4.34l-2.58-2.12a39.36,39.36,0,0,0,4.33-5,16.88,16.88,0,0,0,2.3-4.42,15.52,15.52,0,0,0,.72-4.85v-1h-6.27v-2.85h15.92v2.85h-6.23v1.14a17.13,17.13,0,0,1-1.31,6.84l.17.13.7-.53A1.66,1.66,0,0,1,612.31,120.53ZM626,107.86v29.4h-3.42v-29.4Z"/><path class="cls-15" d="M648.32,122a68,68,0,0,1-12.78,1h-3.15V109H645.5v2.61h-9.86v3h9.43v2.58h-9.43v3.19h.27a65.74,65.74,0,0,0,12-1Zm8.38,13.82v2.85H639.06a2.16,2.16,0,0,1-1.62-.57,2.26,2.26,0,0,1-.55-1.64v-6h15.69v-2.48H636.72v-2.85H656v8.12H640.31v2.58Zm-4.12-18.91h-5.5v-2.79h5.5v-6.23H656v15.62h-3.39Z"/><path class="cls-15" d="M683.26,123.42h-14V109.2h3.32v4.49h7.41v-4.53h3.32Zm-3.32-7h-7.41v4.29h7.41Zm12.51,16a5.42,5.42,0,0,1-1.09,3.34,7.22,7.22,0,0,1-3.22,2.3,16.42,16.42,0,0,1-10.31,0,7.26,7.26,0,0,1-3.25-2.3,5.57,5.57,0,0,1,0-6.67,7,7,0,0,1,3.25-2.28,16.42,16.42,0,0,1,10.31,0,7,7,0,0,1,3.22,2.28A5.39,5.39,0,0,1,692.45,132.4Zm-3.62-.23a3,3,0,0,0-1.44-2.48,7.69,7.69,0,0,0-4.4-1,7.81,7.81,0,0,0-4.42,1,2.92,2.92,0,0,0-1.48,2.48v.5a2.91,2.91,0,0,0,1.46,2.46,8,8,0,0,0,4.44,1,7.87,7.87,0,0,0,4.4-1,2.91,2.91,0,0,0,1.44-2.46Zm7.94-17.07V118h-4.56v7.48h-3.38V107.86h3.38v7.24Z"/><path class="cls-15" d="M707.47,118.45a.52.52,0,0,0-.4.2,19.87,19.87,0,0,1-2.38,3q-1.44,1.53-3.66,3.51L698.52,123a38.93,38.93,0,0,0,4.26-4.13,12.66,12.66,0,0,0,2.23-3.6,11.14,11.14,0,0,0,.68-4v-2h3.42v2.21a13.23,13.23,0,0,1-1.24,5.83l.17.14.74-.64a1.39,1.39,0,0,1,.9-.4,1.22,1.22,0,0,1,.88.4l5.87,5.53L714,124.66l-6-6A.65.65,0,0,0,707.47,118.45Zm-3.28,8.69H723.7v11.6h-3.32V130H704.19Zm19.51-19.28v17.6h-3.38v-17.6Z"/><path class="cls-15" d="M728.23,131.13h27.5V134h-27.5Zm3-14a7.46,7.46,0,0,1,1.19-4.12,8.15,8.15,0,0,1,3.6-2.94,16.68,16.68,0,0,1,11.81,0,8.1,8.1,0,0,1,3.6,2.94,7.74,7.74,0,0,1,0,8.25,8,8,0,0,1-3.6,2.92,16.83,16.83,0,0,1-11.81,0,8.05,8.05,0,0,1-3.6-2.92A7.49,7.49,0,0,1,731.28,117.14Zm17.74.41v-.84a4.4,4.4,0,0,0-1.76-3.59,10.59,10.59,0,0,0-10.56,0,4.39,4.39,0,0,0-1.77,3.59v.84a4.38,4.38,0,0,0,1.78,3.58,10.53,10.53,0,0,0,10.53,0A4.35,4.35,0,0,0,749,117.55Z"/><path class="cls-15" d="M785.64,131.13V134h-27.5v-2.85h12.07v-5h-8.15v-9.65h16.23v-4.06H762V109.6h19.75v9.62H765.48v4.09h17v2.85H773.6v5Z"/><path class="cls-15" d="M805.05,120.93a1.17,1.17,0,0,1,1,.54l4.8,6.81-2.41,2-4.87-7.11a.46.46,0,0,0-.33-.2.31.31,0,0,0-.3.2,23.72,23.72,0,0,1-1.95,3.45q-1.2,1.81-3,4.16l-2.38-2a43.11,43.11,0,0,0,3.61-5.19,17.64,17.64,0,0,0,2.46-9.39v-.61H796.4v-2.85h13.48v2.85h-5.06v.58a21.49,21.49,0,0,1-1.18,7.2l.17.1.44-.3A1.31,1.31,0,0,1,805.05,120.93Zm7.21-12.6h3.22v28.13h-3.22V120.53H808v-2.78h4.22Zm9.76-.47v29.4h-3.25v-29.4Z"/><path class="cls-15" d="M828.16,125.09l-2.52-2.18a34.32,34.32,0,0,0,4.18-3.62,12.18,12.18,0,0,0,2.24-3.23,8.4,8.4,0,0,0,.72-3.48v0h-6.17V109.7h15.7v2.85h-6.14v.2a10.48,10.48,0,0,1-1.27,5.1l.2.1.7-.5a1.43,1.43,0,0,1,.91-.34,1.57,1.57,0,0,1,1,.37l5.67,4.79-2.51,2.22L835,119.32a1,1,0,0,0-.54-.23.67.67,0,0,0-.47.2,18.45,18.45,0,0,1-2.26,2.58C830.82,122.74,829.63,123.82,828.16,125.09Zm2.34,2.11h19.18v11.54h-3.32v-8.69H830.5ZM854.25,118h-4.57v7.58H846.3v-17.7h3.38v7.27h4.57Z"/><path class="cls-15" d="M864.51,127.2a9.11,9.11,0,0,1-3.76-.72,5.73,5.73,0,0,1-2.46-2,4.74,4.74,0,0,1-.86-2.75,4.43,4.43,0,0,1,2.78-4.39v-.2h-4.76v-2.79h18v2.79H868.8v.2a4.64,4.64,0,0,1,2.11,1.76,4.85,4.85,0,0,1,.7,2.63,4.68,4.68,0,0,1-.87,2.75,5.86,5.86,0,0,1-2.48,2A9.09,9.09,0,0,1,864.51,127.2Zm4.66-15.66h-9v-2.85h9Zm-4.93,12.81h.53a3.89,3.89,0,0,0,2.65-.9,3.1,3.1,0,0,0,1-2.48,3.14,3.14,0,0,0-1-2.48,3.84,3.84,0,0,0-2.67-.91h-.53a3.77,3.77,0,0,0-2.63.91,3.5,3.5,0,0,0,0,5A3.82,3.82,0,0,0,864.24,124.35Zm.06,11h16v2.78H863.1a2.17,2.17,0,0,1-1.63-.57,2.26,2.26,0,0,1-.55-1.64v-6.41h3.38Zm19.86-17.74v2.85H879.6v10.06h-3.39V107.86h3.39v9.72Z"/><path class="cls-15" d="M921.11,123.68v2.92h-27.5v-2.92h10.73v-4.16h3.39v4.16Zm-7.11-9c.07-.9.1-1.87.1-2.88H897.33v-2.85h20.09v2.45a48,48,0,0,1-1.11,10.56l-3.25-.44a41,41,0,0,0,.74-4.19l-17.07.67-.4-2.78Zm-13.11,20.46h16.73V138h-18a2.17,2.17,0,0,1-1.63-.57,2.27,2.27,0,0,1-.55-1.65v-6.84h3.42Z"/><path class="cls-15" d="M937.64,125a46.77,46.77,0,0,1-10.39,1h-2.59V110H936v2.72h-8.11v3.79h7.58v2.71h-7.58v4.09h.33a40,40,0,0,0,9-.93Zm12.58,10.06v2.79H931.84a2.17,2.17,0,0,1-1.63-.57,2.27,2.27,0,0,1-.55-1.65v-6.94h3.42v6.37ZM940,119h-3.35v-2.85H940v-7.85h3.15v21.29H940Zm9.56,11.47h-3.25v-22.6h3.25Z"/><path class="cls-15" d="M980.93,131.13V134H953.44v-2.85Zm-15.42-14.25h-9.09v-2.79H978v2.79h-9a6.62,6.62,0,0,1-1.64,3.75l.23.1.87-.64a2,2,0,0,1,1.21-.43,2.74,2.74,0,0,1,1,.23l8.82,4.09-1.84,2.55L968,121.84a1.9,1.9,0,0,0-1-.27,1.72,1.72,0,0,0-.91.27l-.16.1q-2.68,2.15-9.22,4.69L955,124.15a34.46,34.46,0,0,0,7.71-3.6A6.22,6.22,0,0,0,965.51,116.88Zm6.8-5.47H962v-2.85h10.29Z"/><path class="cls-15" d="M1010.84,122.11v2.58H983.35v-2.58Zm-23.4,14.38v-5h16.26v-2H987.27v-2.61h19.58V134H990.59v2.08h17.1v2.65H989.62a2.17,2.17,0,0,1-1.63-.57A2.29,2.29,0,0,1,987.44,136.49Zm15.79-23.5v-2.18H987.4v-2.48h19.12v7.07H990.79v2.18h16.5v2.48H987.54V113Z"/><path class="cls-15" d="M1029.92,127.24a9,9,0,0,1-3.73-.72,5.72,5.72,0,0,1-2.45-2,4.72,4.72,0,0,1-.86-2.75,4.44,4.44,0,0,1,2.78-4.35v-.24h-4.29v-2.78h16.74v2.78h-3.93v.24a4.27,4.27,0,0,1,2.08,1.72,5,5,0,0,1,.67,2.63,4.77,4.77,0,0,1-.84,2.75,5.66,5.66,0,0,1-2.43,2A9,9,0,0,1,1029.92,127.24Zm4.66-15.7h-8.92v-2.85h8.92Zm-4.92,12.85h.53a3.65,3.65,0,0,0,2.58-.93,3.13,3.13,0,0,0,1-2.46,3.19,3.19,0,0,0-1-2.48,3.71,3.71,0,0,0-2.6-.91h-.53a3.71,3.71,0,0,0-2.6.91,3.56,3.56,0,0,0,0,4.94A3.66,3.66,0,0,0,1029.66,124.39Zm17.5,10.93v2.78h-17.57a2.17,2.17,0,0,1-1.63-.57,2.26,2.26,0,0,1-.55-1.64v-6.41h3.42v5.84Zm-4-11.64h-4v-2.75h4v-3.48h-4V114.7h4v-6.84h3.39v22.63h-3.39Z"/><path class="cls-15" d="M1060.27,117.38a.57.57,0,0,0-.44.2,19,19,0,0,1-2.41,2.93q-1.44,1.47-3.62,3.31l-2.52-2.18a37.67,37.67,0,0,0,4.26-4,12.07,12.07,0,0,0,2.23-3.45,10.07,10.07,0,0,0,.69-3.79v-1.81h3.42v2a12.19,12.19,0,0,1-1.24,5.54l.17.13.74-.64a1.5,1.5,0,0,1,.93-.4,1.46,1.46,0,0,1,.88.37l5.83,5.13-2.38,2.41-6.07-5.63A.65.65,0,0,0,1060.27,117.38Zm16.93,18.34v2.92h-17.63a2.17,2.17,0,0,1-1.63-.57,2.26,2.26,0,0,1-.55-1.64v-6.11h15.66v-2.58h-15.83v-2.85h19.28v8.28h-15.66v2.55Zm-.73-12.54h-3.39V107.86h3.39Z"/><path class="cls-15" d="M1090.05,120.23a1,1,0,0,1,.87.54l5,7.44-2.51,2.11-4.86-7.58a.34.34,0,0,0-.31-.2.39.39,0,0,0-.33.24,25.74,25.74,0,0,1-2,3.72c-.81,1.27-1.82,2.72-3,4.33l-2.45-2.05a46.66,46.66,0,0,0,3.64-5.43,18.54,18.54,0,0,0,1.84-4.63,22.4,22.4,0,0,0,.56-5.22v-3.3h3.25v3.23a24.49,24.49,0,0,1-1.07,7.37l.16.13.47-.37A1.37,1.37,0,0,1,1090.05,120.23Zm7.17-11.9h3.26v28.13h-3.26v-15.9H1093v-2.85h4.22Zm9.83-.47v29.4h-3.29v-29.4Z"/><path class="cls-15" d="M1127.4,108.29h3.12v28.2h-3.12V125.86H1123v-2.68h4.42v-5h-4a13.64,13.64,0,0,1-1.36,4.76,14.7,14.7,0,0,1-3.07,4,46.29,46.29,0,0,1-5.39,4.27l-2.18-2.11a36.68,36.68,0,0,0,5.53-4.3,11.28,11.28,0,0,0,2.65-4,15.11,15.11,0,0,0,.77-5.17v-2.19h-8.08v-2.58h11.26v4.63h3.89Zm9.56-.43v29.4h-3.25v-29.4Z"/><path class="cls-15" d="M1168.88,125.93q-3.69.57-8.61.87V137h-3.36V127q-4.29.16-7.88.17l-.3-2.85q5.67,0,11-.27c3.55-.18,6.5-.44,8.87-.77Zm-18.51-10.76a5.61,5.61,0,0,1,1-3.36,6.61,6.61,0,0,1,2.87-2.21,11.7,11.7,0,0,1,8.35,0,6.44,6.44,0,0,1,2.85,2.21,6,6,0,0,1,0,6.71,6.62,6.62,0,0,1-2.85,2.23,11.43,11.43,0,0,1-8.35,0,6.8,6.8,0,0,1-2.87-2.23A5.6,5.6,0,0,1,1150.37,115.17Zm3.52.3a2.89,2.89,0,0,0,1.26,2.46,6.4,6.4,0,0,0,6.61,0,2.89,2.89,0,0,0,1.26-2.46v-.57a2.92,2.92,0,0,0-1.26-2.47,6.4,6.4,0,0,0-6.61,0,2.92,2.92,0,0,0-1.26,2.47Zm20.16-7.61v29.4h-3.39v-29.4Z"/><path class="cls-15" d="M1195,108.33h3.22v28.13H1195V121.37h-2.55q-.23,4.27-2.06,6.45a6,6,0,0,1-4.78,2.17,5.88,5.88,0,0,1-5-2.49q-1.85-2.49-1.85-7.35t1.85-7.38a6.35,6.35,0,0,1,9.71-.41,10.37,10.37,0,0,1,2.09,6.16H1195Zm-6,9.7a6.37,6.37,0,0,0-.93-3.75,2.94,2.94,0,0,0-2.49-1.29,2.88,2.88,0,0,0-2.46,1.29,6.37,6.37,0,0,0-.92,3.75v4.23a6.37,6.37,0,0,0,.92,3.75,2.88,2.88,0,0,0,2.46,1.29,2.91,2.91,0,0,0,2.5-1.29,6.37,6.37,0,0,0,.92-3.75Zm15.7-10.17v29.4h-3.25v-29.4Z"/><path class="cls-15" d="M1217.31,116.14a7.35,7.35,0,0,1,1-3.88,6.63,6.63,0,0,1,2.8-2.54,9.77,9.77,0,0,1,8.15,0,6.69,6.69,0,0,1,2.8,2.54,7.88,7.88,0,0,1,0,7.72,6.78,6.78,0,0,1-2.8,2.55,9.77,9.77,0,0,1-8.15,0,6.72,6.72,0,0,1-2.8-2.55A7.28,7.28,0,0,1,1217.31,116.14Zm12.17.57v-1.18a3.63,3.63,0,0,0-1.18-2.86,5.11,5.11,0,0,0-6.23,0,3.63,3.63,0,0,0-1.18,2.86v1.18a3.68,3.68,0,0,0,1.18,2.88,5,5,0,0,0,6.23,0A3.68,3.68,0,0,0,1229.48,116.71ZM1223,136.22V126h3.35v3.32h12.18V126h3.35v12.48h-16.7a2.15,2.15,0,0,1-1.62-.57A2.27,2.27,0,0,1,1223,136.22Zm15.53-4.09h-12.18v3.46h12.18Zm3.35-24.27v16.39h-3.39V107.86Z"/><path class="cls-15" d="M1246.65,115.7h18.27v2.79h-4.59v.23q2.88,1.55,2.88,5.58a7.2,7.2,0,0,1-.94,3.75,6.32,6.32,0,0,1-2.6,2.47,8.37,8.37,0,0,1-7.47,0,6.32,6.32,0,0,1-2.6-2.47,7.2,7.2,0,0,1-.94-3.75q0-4,2.88-5.58v-.23h-4.89Zm14.38-3.35h-10V109.5h10Zm-1.1,10.64a4.14,4.14,0,0,0-1.09-3,4.39,4.39,0,0,0-5.81,0,4.14,4.14,0,0,0-1.09,3v1.42a4.07,4.07,0,0,0,1.11,3,4.36,4.36,0,0,0,5.77,0,4.07,4.07,0,0,0,1.11-3Zm11.73-15.13v29.4h-3.42v-29.4Z"/><path class="cls-15" d="M1303.79,122.91v2.92h-27.5v-2.92Zm-20.22,12h16.73v2.85h-18a2.17,2.17,0,0,1-1.63-.57,2.26,2.26,0,0,1-.55-1.64v-7.11h3.42ZM1300,119.73h-19.55V109h3.39v8H1300Z"/><path class="cls-15" d="M1315.19,128.65a39.93,39.93,0,0,0,6.84-4.21,11.36,11.36,0,0,0,3.3-4.08,13.08,13.08,0,0,0,1-5.32v-2h-10.2V110.2h13.65V115a15.83,15.83,0,0,1-1.16,6.43,13.68,13.68,0,0,1-3.82,4.9,43.43,43.43,0,0,1-7.59,4.89ZM1336,107.86h3.42v29.4H1336Z"/><path class="cls-15" d="M1359.49,123.52v2.41h8v7.61h-16v2.32h16.86v2.75h-17.9a2.17,2.17,0,0,1-1.63-.57,2.29,2.29,0,0,1-.55-1.65V131h16v-2.28H1348v-2.75h8.08v-2.41H1344v-2.79h27.49v2.79Zm-12.08-4.33-1.77-2.48a44.1,44.1,0,0,0,6.42-2.57,9.88,9.88,0,0,0,3.3-2.5,4.55,4.55,0,0,0,1-2.85v-.73h3.32v.87a7.44,7.44,0,0,1-.43,2.61,6.38,6.38,0,0,1-1.38,2.18l.3.07,1.11-.74a2.22,2.22,0,0,1,1.31-.5,2.12,2.12,0,0,1,.87.2l8.48,3.86-1.81,2.51-9.29-4.42a2.2,2.2,0,0,0-1-.24,1.92,1.92,0,0,0-1,.27,20.34,20.34,0,0,1-3.68,2.15C1351.58,117.57,1349.69,118.34,1347.41,119.19Z"/><path class="cls-15" d="M1377.59,134.18a2.38,2.38,0,0,1-1.84-.66,2.29,2.29,0,0,1-.61-1.62v-.5a2.34,2.34,0,0,1,.61-1.63,2.94,2.94,0,0,1,3.69,0,2.33,2.33,0,0,1,.6,1.63v.5a2.29,2.29,0,0,1-.6,1.62A2.4,2.4,0,0,1,1377.59,134.18Z"/><path class="cls-15" d="M1419.07,127.81h-12V138.4h-3.38V127.81h-12.08V125h27.5Zm-24-12.61a6.08,6.08,0,0,1,1.13-3.62,7.39,7.39,0,0,1,3.43-2.5,18.12,18.12,0,0,1,11.4,0,7.42,7.42,0,0,1,3.44,2.5,6.07,6.07,0,0,1,1.12,3.62,6.16,6.16,0,0,1-1.12,3.64,7.36,7.36,0,0,1-3.44,2.51,18.12,18.12,0,0,1-11.4,0,7.33,7.33,0,0,1-3.43-2.51A6.16,6.16,0,0,1,1395.06,115.2Zm3.69.33a3.37,3.37,0,0,0,1.64,2.87,8.79,8.79,0,0,0,4.93,1.12,8.89,8.89,0,0,0,5-1.12,3.34,3.34,0,0,0,1.66-2.87v-.67a3.38,3.38,0,0,0-1.66-2.88,11.36,11.36,0,0,0-9.88,0,3.4,3.4,0,0,0-1.64,2.9Z"/><path class="cls-15" d="M1440,126.47l.4,2.75a77.6,77.6,0,0,1-13.58,1h-3.45v-11.9h10.16v-5.43H1423.3V110H1437v11.13h-10.17v6.27h.11A79.12,79.12,0,0,0,1440,126.47Zm6.74-18.61v29.4h-3.42v-29.4Z"/><path class="cls-15" d="M1452.67,110.17h13.48V115a16.1,16.1,0,0,1-1.14,6.4,13.6,13.6,0,0,1-3.77,4.88,44.5,44.5,0,0,1-7.46,4.91l-2-2.58a41.07,41.07,0,0,0,6.74-4.23,11.12,11.12,0,0,0,3.25-4.08,13.31,13.31,0,0,0,.94-5.33v-2h-10Zm27.1,11.67h-4.7v15.42h-3.38v-29.4h3.38V119h4.7Z"/><path class="cls-15" d="M1491.94,125.46l-1.81-2.58a43.78,43.78,0,0,0,6.54-3,9.3,9.3,0,0,0,3.18-2.82,6.45,6.45,0,0,0,.91-3.5v-1H1491v-2.85h13.15v3.48a10.24,10.24,0,0,1-1.11,5,10.62,10.62,0,0,1-3.7,3.71A46.14,46.14,0,0,1,1491.94,125.46Zm22.77,6.84a5.5,5.5,0,0,1-1.11,3.37,7.24,7.24,0,0,1-3.25,2.35,14.09,14.09,0,0,1-5.2.85,14.33,14.33,0,0,1-5.23-.85,7.26,7.26,0,0,1-3.29-2.35,5.71,5.71,0,0,1,0-6.74,7.34,7.34,0,0,1,3.29-2.35,14.33,14.33,0,0,1,5.23-.85,14.09,14.09,0,0,1,5.2.85,7.32,7.32,0,0,1,3.25,2.35A5.52,5.52,0,0,1,1514.71,132.3Zm-3.59-.27a3,3,0,0,0-1.49-2.53,10.41,10.41,0,0,0-9,0,3,3,0,0,0-1.49,2.53v.57a3,3,0,0,0,1.49,2.5,10.41,10.41,0,0,0,9,0,3,3,0,0,0,1.49-2.5Zm.1-10.73h-6.1v-2.71h6.1v-3.83h-6.1v-2.68h6.1v-4.22h3.39v17.47h-3.39Z"/><path class="cls-15" d="M1528.26,126a9.84,9.84,0,0,1-3.76-.65,5.83,5.83,0,0,1-2.47-1.78,4.13,4.13,0,0,1-.85-2.53,4.06,4.06,0,0,1,2.68-4v-.23h-4.62v-2.72h18v2.72h-4.56V117a4.27,4.27,0,0,1,1.83,6.52,5.77,5.77,0,0,1-2.47,1.78A9.82,9.82,0,0,1,1528.26,126Zm5-14.68h-9.12v-2.79h9.12Zm-5.33,11.9h.64a4.16,4.16,0,0,0,2.63-.8,2.92,2.92,0,0,0,0-4.43,4.11,4.11,0,0,0-2.63-.81h-.64a4.11,4.11,0,0,0-2.63.81,2.92,2.92,0,0,0,0,4.43A4.16,4.16,0,0,0,1527.92,123.18Zm-2.31,4.83h18.91v10.43h-16.73a2.17,2.17,0,0,1-1.63-.57,2.27,2.27,0,0,1-.55-1.65Zm3.38,7.64h12.14v-4.86H1529Zm15.53-27.79v18.57h-3.39v-4.89h-4.46v-2.79h4.46V107.86Z"/><path class="cls-15" d="M1548.81,115.67h17.94v2.78h-4.53v.2q2.85,1.59,2.85,5.62a7.34,7.34,0,0,1-.92,3.75,6.32,6.32,0,0,1-2.55,2.47,8.18,8.18,0,0,1-7.34,0,6.47,6.47,0,0,1-2.56-2.47,7.25,7.25,0,0,1-.94-3.75q0-4,2.85-5.58v-.24h-4.8Zm14.12-3.35h-9.79v-2.86h9.79Zm-1.14,10.57a4.14,4.14,0,0,0-1-3,4.26,4.26,0,0,0-5.65,0,4.06,4.06,0,0,0-1.06,3v1.55a4.05,4.05,0,0,0,1.07,3,3.81,3.81,0,0,0,2.82,1.08,3.74,3.74,0,0,0,2.8-1.08,4,4,0,0,0,1.06-3Zm15.62-.45h-4.52v14.82h-3.39v-29.4h3.39v11.73h4.52Z"/><path class="cls-15" d="M1606.45,122.91v2.92H1579v-2.92Zm-20.22,12H1603v2.85h-18a2.16,2.16,0,0,1-1.62-.57,2.26,2.26,0,0,1-.56-1.64v-7.11h3.42Zm16.4-15.22h-19.55V109h3.39v8h16.16Z"/><path class="cls-15" d="M1625.53,127.24a9,9,0,0,1-3.73-.72,5.72,5.72,0,0,1-2.45-2,4.72,4.72,0,0,1-.86-2.75,4.44,4.44,0,0,1,2.79-4.35v-.24H1617v-2.78h16.74v2.78h-3.93v.24a4.27,4.27,0,0,1,2.08,1.72,5,5,0,0,1,.67,2.63,4.77,4.77,0,0,1-.84,2.75,5.6,5.6,0,0,1-2.43,2A9,9,0,0,1,1625.53,127.24Zm4.67-15.7h-8.92v-2.85h8.92Zm-4.93,12.85h.53a3.65,3.65,0,0,0,2.58-.93,3.13,3.13,0,0,0,1-2.46,3.19,3.19,0,0,0-1-2.48,3.71,3.71,0,0,0-2.6-.91h-.53a3.71,3.71,0,0,0-2.6.91,3.56,3.56,0,0,0,0,4.94A3.66,3.66,0,0,0,1625.27,124.39Zm17.5,10.93v2.78H1625.2a2.17,2.17,0,0,1-1.63-.57,2.26,2.26,0,0,1-.55-1.64v-6.41h3.42v5.84Zm-4-11.64h-4v-2.75h4v-3.48h-4V114.7h4v-6.84h3.39v22.63h-3.39Z"/><path class="cls-15" d="M1655.88,117.38a.54.54,0,0,0-.43.2,19.64,19.64,0,0,1-2.42,2.93q-1.44,1.47-3.62,3.31l-2.52-2.18a37.67,37.67,0,0,0,4.26-4,12.07,12.07,0,0,0,2.23-3.45,10.07,10.07,0,0,0,.69-3.79v-1.81h3.42v2a12.19,12.19,0,0,1-1.24,5.54l.17.13.74-.64a1.5,1.5,0,0,1,.93-.4,1.46,1.46,0,0,1,.88.37l5.83,5.13-2.38,2.41-6.07-5.63A.65.65,0,0,0,1655.88,117.38Zm16.94,18.34v2.92h-17.64a2.17,2.17,0,0,1-1.63-.57,2.26,2.26,0,0,1-.55-1.64v-6.11h15.66v-2.58h-15.83v-2.85h19.28v8.28h-15.66v2.55Zm-.74-12.54h-3.39V107.86h3.39Z"/><path class="cls-15" d="M579.81,167.18a1,1,0,0,1,.87.53l5,7.45-2.52,2.11-4.86-7.58a.33.33,0,0,0-.3-.2.4.4,0,0,0-.34.23,25.72,25.72,0,0,1-2,3.73q-1.23,1.91-3,4.32l-2.45-2a45.42,45.42,0,0,0,3.64-5.43,18.73,18.73,0,0,0,1.85-4.63,22.45,22.45,0,0,0,.55-5.23v-3.29h3.25v3.23a24.23,24.23,0,0,1-1.07,7.37l.17.13.47-.37A1.37,1.37,0,0,1,579.81,167.18ZM587,155.27h3.25v28.14H587v-15.9h-4.23v-2.85H587Zm9.82-.47v29.41h-3.28V154.8Z"/><path class="cls-15" d="M617.17,155.24h3.12v28.2h-3.12V172.81h-4.43v-2.68h4.43v-5h-4a13.73,13.73,0,0,1-1.35,4.75,15.15,15.15,0,0,1-3.07,4,45.66,45.66,0,0,1-5.4,4.27L601.14,176a35.55,35.55,0,0,0,5.53-4.3,11,11,0,0,0,2.65-4,14.93,14.93,0,0,0,.77-5.18v-2.18H602v-2.58h11.27v4.62h3.89Zm9.55-.44v29.41h-3.25V154.8Z"/><path class="cls-15" d="M646.91,155.27h3.22v28.14h-3.22V168.32h-2.55q-.23,4.27-2.06,6.44a5.94,5.94,0,0,1-4.78,2.17,5.88,5.88,0,0,1-5-2.48q-1.85-2.49-1.85-7.36t1.85-7.37a6.35,6.35,0,0,1,9.7-.42,10.33,10.33,0,0,1,2.1,6.16h2.58Zm-6,9.7a6.28,6.28,0,0,0-.94-3.74,2.9,2.9,0,0,0-2.48-1.3,2.85,2.85,0,0,0-2.46,1.3,6.36,6.36,0,0,0-.92,3.74v4.24a6.41,6.41,0,0,0,.92,3.75,2.87,2.87,0,0,0,2.46,1.29A2.91,2.91,0,0,0,640,173a6.41,6.41,0,0,0,.92-3.75Zm15.7-10.17v29.41h-3.26V154.8Z"/><path class="cls-15" d="M669.68,157.12h13.48V162a16,16,0,0,1-1.14,6.39,13.63,13.63,0,0,1-3.77,4.89,45,45,0,0,1-7.46,4.9l-2-2.58a40.93,40.93,0,0,0,6.74-4.22,11.05,11.05,0,0,0,3.26-4.08,13.58,13.58,0,0,0,.94-5.34v-2h-10Zm27.09,11.67h-4.69v15.42h-3.39V154.8h3.39v11.13h4.69Z"/><path class="cls-15" d="M706.77,165a.54.54,0,0,0-.41.2,18.85,18.85,0,0,1-2.33,3c-.95,1-2.16,2.19-3.63,3.56l-2.52-2.18a38.73,38.73,0,0,0,4.21-4.14,13,13,0,0,0,2.21-3.61,10.72,10.72,0,0,0,.69-3.92v-2h3.42v2.14a13.09,13.09,0,0,1-1.24,5.77l.13.1.74-.6A1.29,1.29,0,0,1,709,163a1.19,1.19,0,0,1,.87.37l5.8,5.4-2.38,2.38-6-5.87A.67.67,0,0,0,706.77,165Zm15.59,14.22a5.56,5.56,0,0,1-1.09,3.37,7.2,7.2,0,0,1-3.22,2.34,15.88,15.88,0,0,1-10.31,0,7.24,7.24,0,0,1-3.25-2.34,5.67,5.67,0,0,1,0-6.74,7.19,7.19,0,0,1,3.25-2.35,15.88,15.88,0,0,1,10.31,0,7.14,7.14,0,0,1,3.22,2.35A5.54,5.54,0,0,1,722.36,179.25Zm-3.62-.27a3,3,0,0,0-1.44-2.53,7.66,7.66,0,0,0-4.4-1,7.8,7.8,0,0,0-4.42,1A3,3,0,0,0,707,179v.57a3,3,0,0,0,1.48,2.5,7.8,7.8,0,0,0,4.42,1,7.66,7.66,0,0,0,4.4-1,3,3,0,0,0,1.44-2.5Zm8-16.94v2.86h-4.56v7.37h-3.39V154.8h3.39V162Z"/><path class="cls-15" d="M728.3,175.26c3.77,0,7.43-.09,11-.27s6.48-.44,8.85-.77l.34,2.68q-3.72.6-9,.91c-3.53.2-7.15.3-10.89.3Zm1.27-11.59a6.71,6.71,0,0,1,1.06-3.75,7.06,7.06,0,0,1,2.9-2.52,10.31,10.31,0,0,1,8.38,0,7.06,7.06,0,0,1,2.9,2.52,6.79,6.79,0,0,1,1.06,3.75,6.68,6.68,0,0,1-1.06,3.73,7,7,0,0,1-2.9,2.51,10.31,10.31,0,0,1-8.38,0,7,7,0,0,1-2.9-2.51A6.6,6.6,0,0,1,729.57,163.67Zm12.74.37v-.77a3.7,3.7,0,0,0-1.27-2.93,5.52,5.52,0,0,0-6.64,0,3.7,3.7,0,0,0-1.28,2.93V164A3.7,3.7,0,0,0,734.4,167a5.52,5.52,0,0,0,6.64,0A3.7,3.7,0,0,0,742.31,164Zm7.85-9.24h3.39v29.41h-3.39Z"/><path class="cls-15" d="M781.51,170.36v2.52h8v7.67h-16v2.32h16.87v2.78h-17.9a2.17,2.17,0,0,1-1.63-.57,2.26,2.26,0,0,1-.55-1.64V178h16v-2.34H770v-2.75h8.09v-2.52H766.05v-2.75h27.5v2.75Zm8-5.1H770.08v-9.89h19.45ZM786.17,158H773.43v4.69h12.74Z"/><path class="cls-15" d="M805,170a1.47,1.47,0,0,1,1,.5l4.86,5.43-2.35,2-4.93-5.77a.5.5,0,0,0-.37-.16.42.42,0,0,0-.36.16,32.15,32.15,0,0,1-5,6.31l-2.25-1.91a28.22,28.22,0,0,0,4.7-6,12.45,12.45,0,0,0,1.37-5.72h-5.3V162H810v2.72h-5.23a14.71,14.71,0,0,1-1.11,5.63l.2.14.4-.3A1.27,1.27,0,0,1,805,170Zm2.18-10.6h-7.81v-2.71h7.81Zm5.13-4.09h3.15v28.14h-3.15V170.06h-3.72v-2.78h3.72Zm9.76-.47v29.41h-3.19V154.8Z"/><path class="cls-15" d="M843.08,172.41l.43,2.75a69.08,69.08,0,0,1-13.24,1.1H827V157.12h3.35v16.29A69.74,69.74,0,0,0,843.08,172.41Zm11.17-3.62h-4.7v15.42h-3.39V154.8h3.39v11.13h4.7Z"/><path class="cls-15" d="M866.58,171.77l-2.51-2.18a33.68,33.68,0,0,0,4.19-3.58,11.89,11.89,0,0,0,2.27-3.17,8.19,8.19,0,0,0,.72-3.44h-6.17v-2.86h15.66v2.86h-6.11v.2a10.41,10.41,0,0,1-1.24,5l.2.13.71-.5a1.48,1.48,0,0,1,.94-.37,1.53,1.53,0,0,1,1,.37l5.67,4.73-2.52,2.21-5.87-5.13a.8.8,0,0,0-.57-.2.78.78,0,0,0-.47.17,20.34,20.34,0,0,1-2.31,2.59C869.22,169.52,868,170.56,866.58,171.77Zm22.61,7.58a5.34,5.34,0,0,1-1.11,3.33,7.21,7.21,0,0,1-3.29,2.3,16.79,16.79,0,0,1-10.49,0,7.21,7.21,0,0,1-3.29-2.3,5.57,5.57,0,0,1,0-6.67,7.18,7.18,0,0,1,3.29-2.28,17.25,17.25,0,0,1,10.51,0,7.22,7.22,0,0,1,3.27,2.28A5.37,5.37,0,0,1,889.19,179.35Zm-3.56-.24a3,3,0,0,0-1.51-2.53,8.19,8.19,0,0,0-4.56-1,8.27,8.27,0,0,0-4.57,1,3,3,0,0,0-1.53,2.53v.51a3,3,0,0,0,1.53,2.51,8.37,8.37,0,0,0,4.57,1,8.28,8.28,0,0,0,4.56-1,3,3,0,0,0,1.51-2.51Zm.07-17.27v-7h3.39v17.57H885.7v-7.74h-5.57v-2.79Z"/><path class="cls-15" d="M921.11,178.07v2.85h-27.5v-2.85h12.07v-6.2h-8.41V156.34h3.35v5.07H914v-5.07h3.35v15.53h-8.28v6.2Zm-20.49-9H914v-4.83H900.62Z"/><path class="cls-15" d="M924.8,157.12h13.48V162a16,16,0,0,1-1.14,6.39,13.63,13.63,0,0,1-3.77,4.89,45.12,45.12,0,0,1-7.47,4.9l-2-2.58a41.37,41.37,0,0,0,6.74-4.22,11.05,11.05,0,0,0,3.26-4.08,13.59,13.59,0,0,0,.93-5.34v-2h-10Zm27.09,11.67H947.2v15.42h-3.39V154.8h3.39v11.13h4.69Z"/><path class="cls-15" d="M970.07,172.31a10.7,10.7,0,0,1-3.78-.62,5.72,5.72,0,0,1-2.48-1.71,3.9,3.9,0,0,1-.85-2.47,3.81,3.81,0,0,1,2.68-3.76v-.23H961v-2.68h18v2.68h-4.52v.23a3.85,3.85,0,0,1,2.61,3.76,3.9,3.9,0,0,1-.85,2.47,5.68,5.68,0,0,1-2.47,1.71A10.45,10.45,0,0,1,970.07,172.31Zm4.66-14.22h-9v-2.75h9Zm-5,11.5h.74a4.19,4.19,0,0,0,2.61-.77,2.72,2.72,0,0,0,0-4.23,4.19,4.19,0,0,0-2.61-.77h-.74a4.26,4.26,0,0,0-2.63.77,2.66,2.66,0,0,0,0,4.21A4.21,4.21,0,0,0,969.7,169.59ZM981.87,174h3.29v11.4H968.79a2.15,2.15,0,0,1-1.62-.57,2.25,2.25,0,0,1-.56-1.64V174h3.29v3h12Zm0,5.67h-12v3h12Zm7.85-14.39h-4.56v7.15h-3.39V154.8h3.39v7.61h4.56Z"/><path class="cls-15" d="M1000.31,165a.57.57,0,0,0-.4.2,19.67,19.67,0,0,1-2.34,3c-1,1-2.21,2.27-3.73,3.67l-2.51-2.24a40.48,40.48,0,0,0,4.26-4.23,13.5,13.5,0,0,0,2.24-3.64,10.75,10.75,0,0,0,.71-4v-2H1002V158a13.18,13.18,0,0,1-1.28,5.8l.17.1.74-.63a1.74,1.74,0,0,1,1-.37,1.16,1.16,0,0,1,.84.37l5.9,5.46-2.45,2.38-6.1-5.93A.58.58,0,0,0,1000.31,165Zm16.44,14.25a5.52,5.52,0,0,1-1.11,3.37,7.3,7.3,0,0,1-3.25,2.34,14.08,14.08,0,0,1-5.2.86A14.28,14.28,0,0,1,1002,185a7.27,7.27,0,0,1-3.29-2.34,5.71,5.71,0,0,1,0-6.74,7.21,7.21,0,0,1,3.29-2.35,14.28,14.28,0,0,1,5.23-.86,14.08,14.08,0,0,1,5.2.86,7.24,7.24,0,0,1,3.25,2.35A5.5,5.5,0,0,1,1016.75,179.25Zm-3.59-.27a3,3,0,0,0-1.49-2.53,10.32,10.32,0,0,0-9,0,3,3,0,0,0-1.49,2.53v.57a3,3,0,0,0,1.49,2.5,10.41,10.41,0,0,0,9,0,3,3,0,0,0,1.49-2.5Zm.1-15.26h-5.94v-2.85h5.94V154.8h3.39v17.47h-3.39Z"/><path class="cls-15" d="M1041,174.75l.3,2.72c-2.48.38-5.48.67-9,.87s-7.14.3-10.83.3l-.3-2.85q4.53,0,8.05-.13v-6h-5.6V157.05h14.75v2.85h-11.43v6.91h11.67v2.85h-6.1v5.87Q1038,175.19,1041,174.75Zm5.47-19.95v29.41h-3.39V154.8Z"/><path class="cls-15" d="M1076.4,154.8v29.41H1073V167.78h-5.5q-.23,4.47-2.36,6.75a7.81,7.81,0,0,1-11.28-.28c-1.46-1.71-2.18-4.21-2.18-7.53s.72-5.85,2.16-7.54a7.21,7.21,0,0,1,5.78-2.53,7.3,7.3,0,0,1,5.35,2.07,9.81,9.81,0,0,1,2.5,6.21H1073V154.8ZM1064,165a6.27,6.27,0,0,0-1.19-4.12,4.25,4.25,0,0,0-6.34,0,6.32,6.32,0,0,0-1.19,4.12v3.36a6.29,6.29,0,0,0,1.19,4.12,4.23,4.23,0,0,0,6.34,0,6.23,6.23,0,0,0,1.19-4.12Z"/><path class="cls-15" d="M1098.1,164.33a.53.53,0,0,0-.44.2,19.54,19.54,0,0,1-2.41,2.93c-1,1-2.17,2.07-3.63,3.3l-2.51-2.18a36.81,36.81,0,0,0,4.26-4,12.25,12.25,0,0,0,2.23-3.46,10,10,0,0,0,.68-3.79v-1.81h3.43v2.05a12.15,12.15,0,0,1-1.25,5.53l.17.14.74-.64a1.55,1.55,0,0,1,.94-.4,1.41,1.41,0,0,1,.87.37l5.84,5.13-2.38,2.41-6.07-5.63A.63.63,0,0,0,1098.1,164.33ZM1115,182.67v2.91h-17.64a2.15,2.15,0,0,1-1.62-.57,2.25,2.25,0,0,1-.56-1.64v-6.1h15.66v-2.58H1095v-2.85h19.29v8.28h-15.66v2.55Zm-.74-12.54h-3.38V154.8h3.38Z"/><path class="cls-15" d="M1127.91,167.88a1.18,1.18,0,0,1,1,.54l4.79,6.8-2.41,2-4.86-7.11a.46.46,0,0,0-.34-.21.33.33,0,0,0-.3.21,24.68,24.68,0,0,1-1.94,3.45c-.81,1.21-1.82,2.59-3,4.16l-2.38-2a42.9,42.9,0,0,0,3.6-5.19,18.78,18.78,0,0,0,1.88-4.49,19.21,19.21,0,0,0,.59-4.91v-.6h-5.23v-2.85h13.48v2.85h-5.07v.57a21.85,21.85,0,0,1-1.17,7.21l.17.1.43-.3A1.36,1.36,0,0,1,1127.91,167.88Zm7.21-12.61h3.22v28.14h-3.22V167.48h-4.23v-2.79h4.23Zm9.75-.47v29.41h-3.25V154.8Z"/><path class="cls-15" d="M1165.4,174.18a9,9,0,0,1-3.74-.72,5.76,5.76,0,0,1-2.45-2,4.74,4.74,0,0,1-.86-2.75,4.45,4.45,0,0,1,2.79-4.36v-.23h-4.29v-2.79h16.73v2.79h-3.92v.23a4.26,4.26,0,0,1,2.07,1.73,5,5,0,0,1,.68,2.63,4.87,4.87,0,0,1-.84,2.75,5.64,5.64,0,0,1-2.43,2A9,9,0,0,1,1165.4,174.18Zm4.66-15.69h-8.92v-2.85h8.92Zm-4.93,12.84h.53a3.65,3.65,0,0,0,2.59-.92,3.16,3.16,0,0,0,1-2.46,3.22,3.22,0,0,0-1-2.49,3.7,3.7,0,0,0-2.6-.9h-.53a3.72,3.72,0,0,0-2.6.9,3.22,3.22,0,0,0-1,2.49,3.17,3.17,0,0,0,1,2.46A3.64,3.64,0,0,0,1165.13,171.33Zm17.5,10.94v2.78h-17.57a2.15,2.15,0,0,1-1.62-.57,2.27,2.27,0,0,1-.56-1.65v-6.4h3.42v5.84Zm-4-11.64h-4v-2.75h4v-3.49h-4v-2.75h4V154.8H1182v22.64h-3.39Z"/><path class="cls-15" d="M1195.74,164.33a.51.51,0,0,0-.43.2,19.64,19.64,0,0,1-2.42,2.93q-1.44,1.46-3.62,3.3l-2.51-2.18a36.81,36.81,0,0,0,4.26-4,12.47,12.47,0,0,0,2.23-3.46,10.23,10.23,0,0,0,.68-3.79v-1.81h3.42v2.05a12.15,12.15,0,0,1-1.24,5.53l.17.14.74-.64a1.52,1.52,0,0,1,.94-.4,1.41,1.41,0,0,1,.87.37l5.83,5.13-2.38,2.41-6.07-5.63A.61.61,0,0,0,1195.74,164.33Zm16.94,18.34v2.91H1195a2.17,2.17,0,0,1-1.63-.57,2.24,2.24,0,0,1-.55-1.64v-6.1h15.66v-2.58h-15.83v-2.85H1212v8.28h-15.66v2.55Zm-.74-12.54h-3.39V154.8h3.39Z"/><path class="cls-15" d="M1235,174.18l.31,2.69c-2.37.38-5.28.67-8.71.88s-6.94.32-10.54.32l-.3-2.85q3.21,0,6.33-.1v-8.78h3.29V175Q1231,174.75,1235,174.18Zm-5-13.88h-12.27v-2.85h15.59v2.42a49.88,49.88,0,0,1-1.2,11l-3.22-.5A44.91,44.91,0,0,0,1230,160.3Zm14.83,9.12h-4.33v14.79h-3.35V154.8h3.35v11.77h4.33Z"/><path class="cls-15" d="M1247.65,157.12h13.48V162a16,16,0,0,1-1.14,6.39,13.63,13.63,0,0,1-3.77,4.89,45,45,0,0,1-7.46,4.9l-2-2.58a41.82,41.82,0,0,0,6.74-4.22,11.12,11.12,0,0,0,3.25-4.08,13.58,13.58,0,0,0,.94-5.34v-2h-10Zm27.1,11.67h-4.7v15.42h-3.38V154.8h3.38v11.13h4.7Z"/><path class="cls-15" d="M1284.74,165a.51.51,0,0,0-.4.2,19.46,19.46,0,0,1-2.33,3c-1,1-2.17,2.19-3.64,3.56l-2.52-2.18a38.73,38.73,0,0,0,4.21-4.14,13,13,0,0,0,2.22-3.61,10.93,10.93,0,0,0,.68-3.92v-2h3.42v2.14a13.09,13.09,0,0,1-1.24,5.77l.14.1.73-.6a1.29,1.29,0,0,1,.91-.37,1.16,1.16,0,0,1,.87.37l5.8,5.4-2.38,2.38-6-5.87A.65.65,0,0,0,1284.74,165Zm15.59,14.22a5.56,5.56,0,0,1-1.09,3.37A7.15,7.15,0,0,1,1296,185a13.78,13.78,0,0,1-5.14.86,14,14,0,0,1-5.17-.86,7.3,7.3,0,0,1-3.25-2.34,5.67,5.67,0,0,1,0-6.74,7.24,7.24,0,0,1,3.25-2.35,14,14,0,0,1,5.17-.86,13.78,13.78,0,0,1,5.14.86,7.09,7.09,0,0,1,3.22,2.35A5.54,5.54,0,0,1,1300.33,179.25Zm-3.62-.27a3,3,0,0,0-1.44-2.53,7.64,7.64,0,0,0-4.39-1,7.81,7.81,0,0,0-4.43,1A3,3,0,0,0,1285,179v.57a3,3,0,0,0,1.47,2.5,7.82,7.82,0,0,0,4.43,1,7.65,7.65,0,0,0,4.39-1,3,3,0,0,0,1.44-2.5Zm8-16.94v2.86h-4.56v7.37h-3.39V154.8h3.39V162Z"/><path class="cls-15" d="M1315,174.18a9,9,0,0,1-3.74-.72,5.73,5.73,0,0,1-2.44-2,4.74,4.74,0,0,1-.86-2.75,4.46,4.46,0,0,1,2.78-4.36v-.23h-4.29v-2.79h16.74v2.79h-3.93v.23a4.29,4.29,0,0,1,2.08,1.73,5,5,0,0,1,.67,2.63,4.8,4.8,0,0,1-.84,2.75,5.64,5.64,0,0,1-2.43,2A9,9,0,0,1,1315,174.18Zm4.66-15.69h-8.92v-2.85h8.92Zm-4.92,12.84h.53a3.64,3.64,0,0,0,2.58-.92,3.17,3.17,0,0,0,1-2.46,3.22,3.22,0,0,0-1-2.49,3.72,3.72,0,0,0-2.6-.9h-.53a3.69,3.69,0,0,0-2.6.9,3.22,3.22,0,0,0-1,2.49,3.16,3.16,0,0,0,1,2.46A3.65,3.65,0,0,0,1314.69,171.33Zm17.5,10.94v2.78h-17.57a2.17,2.17,0,0,1-1.63-.57,2.27,2.27,0,0,1-.55-1.65v-6.4h3.42v5.84Zm-4-11.64h-4v-2.75h4v-3.49h-4v-2.75h4V154.8h3.39v22.64h-3.39Z"/><path class="cls-15" d="M1345.3,164.33a.54.54,0,0,0-.44.2,19,19,0,0,1-2.41,2.93q-1.44,1.46-3.62,3.3l-2.52-2.18a36.81,36.81,0,0,0,4.26-4,12.25,12.25,0,0,0,2.23-3.46,10,10,0,0,0,.69-3.79v-1.81h3.42v2.05a12.15,12.15,0,0,1-1.24,5.53l.17.14.73-.64a1.55,1.55,0,0,1,.94-.4,1.46,1.46,0,0,1,.88.37l5.83,5.13-2.38,2.41-6.07-5.63A.61.61,0,0,0,1345.3,164.33Zm16.93,18.34v2.91H1344.6A2.17,2.17,0,0,1,1343,185a2.24,2.24,0,0,1-.55-1.64v-6.1h15.66v-2.58h-15.83v-2.85h19.28v8.28h-15.66v2.55Zm-.73-12.54h-3.39V154.8h3.39Z"/><path class="cls-15" d="M1366.09,175.26c3.78,0,7.43-.09,11-.27s6.48-.44,8.85-.77l.33,2.68q-3.72.6-9,.91t-10.88.3Zm1.27-11.59a6.79,6.79,0,0,1,1.06-3.75,7.06,7.06,0,0,1,2.9-2.52,10.31,10.31,0,0,1,8.38,0,7.15,7.15,0,0,1,2.91,2.52,6.79,6.79,0,0,1,1.05,3.75,6.67,6.67,0,0,1-1.05,3.73,7.13,7.13,0,0,1-2.91,2.51,10.31,10.31,0,0,1-8.38,0,7,7,0,0,1-2.9-2.51A6.68,6.68,0,0,1,1367.36,163.67Zm12.75.37v-.77a3.7,3.7,0,0,0-1.28-2.93,5.52,5.52,0,0,0-6.64,0,3.7,3.7,0,0,0-1.27,2.93V164a3.7,3.7,0,0,0,1.27,2.93,5.52,5.52,0,0,0,6.64,0A3.7,3.7,0,0,0,1380.11,164Zm7.84-9.24h3.39v29.41H1388Z"/><path class="cls-15" d="M1412.3,165a.51.51,0,0,0-.4.2,19.46,19.46,0,0,1-2.33,3c-1,1-2.17,2.19-3.64,3.56l-2.52-2.18a38.73,38.73,0,0,0,4.21-4.14,12.74,12.74,0,0,0,2.21-3.61,10.72,10.72,0,0,0,.69-3.92v-2h3.42v2.14a13.09,13.09,0,0,1-1.24,5.77l.14.1.73-.6a1.29,1.29,0,0,1,.91-.37,1.19,1.19,0,0,1,.87.37l5.8,5.4-2.38,2.38-6-5.87A.67.67,0,0,0,1412.3,165Zm15.59,14.22a5.56,5.56,0,0,1-1.09,3.37,7.2,7.2,0,0,1-3.22,2.34,13.78,13.78,0,0,1-5.14.86,14,14,0,0,1-5.17-.86,7.3,7.3,0,0,1-3.25-2.34,5.67,5.67,0,0,1,0-6.74,7.24,7.24,0,0,1,3.25-2.35,14,14,0,0,1,5.17-.86,13.78,13.78,0,0,1,5.14.86,7.14,7.14,0,0,1,3.22,2.35A5.54,5.54,0,0,1,1427.89,179.25Zm-3.62-.27a3,3,0,0,0-1.44-2.53,7.64,7.64,0,0,0-4.39-1,7.81,7.81,0,0,0-4.43,1,3,3,0,0,0-1.48,2.53v.57a3,3,0,0,0,1.48,2.5,7.82,7.82,0,0,0,4.43,1,7.65,7.65,0,0,0,4.39-1,3,3,0,0,0,1.44-2.5Zm8-16.94v2.86h-4.56v7.37h-3.39V154.8h3.39V162Z"/><path class="cls-15" d="M1461.26,178.07v2.85h-27.5v-2.85h12.07V174a9.57,9.57,0,0,1-5.46-1.8,4.5,4.5,0,0,1-1.78-3.54,4.24,4.24,0,0,1,3.12-4.15v-.23h-6.17v-2.85h23.94v2.85h-6.17v.2a4.25,4.25,0,0,1,3.12,4.18,4.5,4.5,0,0,1-1.78,3.54,9.52,9.52,0,0,1-5.43,1.8v4.09Zm-14.46-6.84h1.41a5.8,5.8,0,0,0,3.51-.91,3.08,3.08,0,0,0,0-4.91,5.8,5.8,0,0,0-3.51-.92h-1.41a5.77,5.77,0,0,0-3.5.92,3.08,3.08,0,0,0,0,4.91A5.77,5.77,0,0,0,1446.8,171.23Zm6-12.94h-10.66v-2.85h10.66Z"/><path class="cls-15" d="M1466,172l-2.51-2.18a34.87,34.87,0,0,0,4.17-3.63,11.81,11.81,0,0,0,2.25-3.22,8.4,8.4,0,0,0,.72-3.48v0h-6.17v-2.85h15.69v2.85H1474v.2a10.43,10.43,0,0,1-1.28,5.09l.2.11.71-.51a1.47,1.47,0,0,1,.9-.33,1.58,1.58,0,0,1,1,.37l5.67,4.79-2.52,2.21-5.87-5.16a.88.88,0,0,0-.53-.23.61.61,0,0,0-.47.2,18.57,18.57,0,0,1-2.27,2.58Q1468.17,170.13,1466,172Zm2.35,2.11h19.18v11.54h-3.32V177H1468.3Zm23.74-9.22h-4.56v7.58h-3.39V154.8h3.39v7.28H1492Z"/><path class="cls-15" d="M1521.08,169.29v2.85h-27.5v-2.85h6.94v-3.62a6.08,6.08,0,0,1-2.56-2,4.71,4.71,0,0,1-.86-2.77,5,5,0,0,1,2.57-4.36q2.57-1.6,7.66-1.6t7.66,1.6a5,5,0,0,1,2.57,4.36,4.71,4.71,0,0,1-.86,2.77,6.08,6.08,0,0,1-2.56,2v3.62Zm-3.69,10.8a4.46,4.46,0,0,1-1.16,3.06,7.52,7.52,0,0,1-3.42,2.07,20.93,20.93,0,0,1-11,0,7.52,7.52,0,0,1-3.42-2.07,4.63,4.63,0,0,1,0-6.13,7.42,7.42,0,0,1,3.42-2.06,20.66,20.66,0,0,1,11,0,7.42,7.42,0,0,1,3.42,2.06A4.47,4.47,0,0,1,1517.39,180.09Zm-16.7-19a2.6,2.6,0,0,0,1.66,2.28,14.77,14.77,0,0,0,10,0,2.6,2.6,0,0,0,1.66-2.28v-.44a2.58,2.58,0,0,0-1.66-2.28,14.77,14.77,0,0,0-10,0,2.58,2.58,0,0,0-1.66,2.28Zm13.15,18.77c0-.84-.55-1.55-1.63-2.13a14.46,14.46,0,0,0-9.77,0q-1.65.87-1.65,2.13v.44q0,1.25,1.65,2.1a14.46,14.46,0,0,0,9.77,0c1.08-.57,1.63-1.27,1.63-2.1Zm-10.06-10.59h7.11v-2.68a27.59,27.59,0,0,1-7.11,0Z"/><path class="cls-15" d="M1523.26,162.62h17.94v2.78h-4.53v.2c1.9,1.05,2.85,2.93,2.85,5.61a7.29,7.29,0,0,1-.92,3.75,6.25,6.25,0,0,1-2.55,2.47,8.09,8.09,0,0,1-7.34,0,6.43,6.43,0,0,1-2.57-2.47,7.3,7.3,0,0,1-.94-3.75c0-2.68,1-4.55,2.85-5.58v-.23h-4.79Zm14.12-3.36h-9.8v-2.85h9.8Zm-1.14,10.58a4.12,4.12,0,0,0-1-3,3.76,3.76,0,0,0-2.82-1.06,3.81,3.81,0,0,0-2.83,1.07,4.09,4.09,0,0,0-1.06,3v1.55a4.07,4.07,0,0,0,1.07,3,3.81,3.81,0,0,0,2.82,1.08,3.74,3.74,0,0,0,2.8-1.08,4.1,4.1,0,0,0,1.06-3Zm15.62-.45h-4.52v14.82H1544V154.8h3.39v11.74h4.52Z"/><path class="cls-15" d="M1580.9,169.86v2.92h-27.49v-2.92Zm-20.22,12h16.73v2.85h-18a2.15,2.15,0,0,1-1.62-.57,2.27,2.27,0,0,1-.56-1.65v-7.11h3.42Zm16.4-15.23h-19.55V155.91h3.39v8h16.16Z"/><path class="cls-15" d="M1618.73,168.45v2.92h-27.5v-2.92H1602V163h3.39v5.5Zm-7.25-9.89h-16.66v-2.85h20v1.74a46.88,46.88,0,0,1-1,9.09l-3.25-.44A36.49,36.49,0,0,0,1611.48,158.56Zm3.56,21.29a4.74,4.74,0,0,1-1.16,3.15,7.63,7.63,0,0,1-3.42,2.17,19.64,19.64,0,0,1-11,0,7.63,7.63,0,0,1-3.42-2.17,4.9,4.9,0,0,1,0-6.33,7.63,7.63,0,0,1,3.42-2.17,19.4,19.4,0,0,1,11,0,7.63,7.63,0,0,1,3.42,2.17A4.78,4.78,0,0,1,1615,179.85Zm-3.56-.23a2.66,2.66,0,0,0-1.62-2.3,10.11,10.11,0,0,0-4.88-.92,10.22,10.22,0,0,0-4.9.92,2.67,2.67,0,0,0-1.64,2.3v.47a2.67,2.67,0,0,0,1.64,2.26,10.34,10.34,0,0,0,4.9.92,10.23,10.23,0,0,0,4.88-.92,2.66,2.66,0,0,0,1.62-2.26Z"/><path class="cls-15" d="M1623.32,173.25l-1.81-2.59a43.77,43.77,0,0,0,6.67-3.18,9.51,9.51,0,0,0,3.26-3,7.19,7.19,0,0,0,.93-3.75v-1.11h-9.95v-2.85h13.38v3.66a9.68,9.68,0,0,1-4.88,9.05A45.67,45.67,0,0,1,1623.32,173.25Zm6.34,8.78h16v2.78h-17.2a2.18,2.18,0,0,1-1.63-.57,2.29,2.29,0,0,1-.55-1.64v-8h3.39Zm19.85-18.64v2.85H1645V177h-3.39V154.8H1645v8.59Z"/><path class="cls-15" d="M1651.05,178.07h27.5v2.85h-27.5Zm3-14a7.46,7.46,0,0,1,1.19-4.12,8.18,8.18,0,0,1,3.61-2.94,16.51,16.51,0,0,1,11.8,0,8.18,8.18,0,0,1,3.61,2.94,7.73,7.73,0,0,1,0,8.24,8,8,0,0,1-3.61,2.92,16.66,16.66,0,0,1-11.8,0,8,8,0,0,1-3.61-2.92A7.44,7.44,0,0,1,1654.1,164.09Zm17.74.4v-.84a4.36,4.36,0,0,0-1.76-3.58,10.59,10.59,0,0,0-10.56,0,4.39,4.39,0,0,0-1.76,3.58v.84a4.37,4.37,0,0,0,1.78,3.59,10.53,10.53,0,0,0,10.53,0A4.39,4.39,0,0,0,1671.84,164.49Z"/><path class="cls-15" d="M1708.46,178.07v2.85H1681v-2.85H1693v-5h-8.15v-9.66h16.23v-4h-16.33v-2.86h19.75v9.63h-16.23v4.09h17v2.85h-8.92v5Z"/><path class="cls-15" d="M585.81,218.18H571.6V203.66h14.21Zm-3.38-11.67H575v8.89h7.45ZM579.28,229h16v2.78h-17.2a2.17,2.17,0,0,1-1.63-.57,2.26,2.26,0,0,1-.55-1.64V221.5h3.39Zm19.85-18.65v2.85h-4.56v10.73h-3.39V201.75h3.39v8.58Z"/><path class="cls-15" d="M628.17,214.56v2.85h-27.5v-2.85Zm-20.09,15.15H625v2.79H607a2.18,2.18,0,0,1-1.63-.57,2.31,2.31,0,0,1-.55-1.65v-5.49h16v-2.32h-16.2v-2.75h19.45v7.65h-16Zm16.3-17.6H604.76v-9.66h19.38v2.72h-16v4.22h16.23Z"/><path class="cls-15" d="M655.9,201.75v29.41h-3.39V214.73H647q-.22,4.47-2.36,6.74a7.8,7.8,0,0,1-11.29-.28q-2.18-2.55-2.18-7.52c0-3.34.73-5.85,2.17-7.54a7.22,7.22,0,0,1,5.78-2.54,7.31,7.31,0,0,1,5.35,2.08,9.81,9.81,0,0,1,2.5,6.21h5.53V201.75ZM643.49,212a6.3,6.3,0,0,0-1.19-4.12,4.23,4.23,0,0,0-6.34,0,6.3,6.3,0,0,0-1.19,4.12v3.36a6.32,6.32,0,0,0,1.19,4.12,4.23,4.23,0,0,0,6.34,0,6.32,6.32,0,0,0,1.19-4.12Z"/><path class="cls-15" d="M695.9,221.67h-12V232.3h-3.38V221.67H668.41v-2.85H695.9Zm-15.42-16h-9v-2.86h21.33v2.86h-8.89a7.22,7.22,0,0,1-1.61,4.35l.14,0,.87-.64a2,2,0,0,1,1.2-.44,2,2,0,0,1,.94.24l8.69,4.43-1.88,2.58-9.35-5A1.9,1.9,0,0,0,682,211a1.37,1.37,0,0,0-.77.24,19.87,19.87,0,0,1-3.64,2.5,55.76,55.76,0,0,1-5.65,2.63l-1.81-2.55a31.07,31.07,0,0,0,7.74-3.94A6.27,6.27,0,0,0,680.48,205.71Z"/><path class="cls-15" d="M725.81,216.8v2.92H698.32V216.8Zm-20.22,12h16.74v2.85h-18a2.16,2.16,0,0,1-1.62-.57,2.25,2.25,0,0,1-.56-1.64v-7.11h3.42ZM722,213.62H702.44V202.85h3.39v8H722Z"/><path class="cls-15" d="M737.22,222.54a39.93,39.93,0,0,0,6.84-4.21,11.36,11.36,0,0,0,3.3-4.08,13.05,13.05,0,0,0,.95-5.32v-2H738.12V204.1h13.65v4.83a16,16,0,0,1-1.16,6.43,13.71,13.71,0,0,1-3.82,4.91,43.23,43.23,0,0,1-7.6,4.88ZM758,201.75h3.42v29.41H758Z"/><path class="cls-15" d="M781.51,217.41v2.41h8v7.61h-16v2.32h16.87v2.75h-17.9a2.17,2.17,0,0,1-1.63-.57,2.27,2.27,0,0,1-.55-1.65v-5.43h16v-2.28H770v-2.75h8.09v-2.41H766.05v-2.78h27.5v2.78Zm-12.07-4.33-1.78-2.48a43.31,43.31,0,0,0,6.42-2.56,10,10,0,0,0,3.31-2.5,4.57,4.57,0,0,0,1-2.85V202h3.32v.87a7.54,7.54,0,0,1-.44,2.62,6.6,6.6,0,0,1-1.37,2.18l.3.06,1.11-.73a2.15,2.15,0,0,1,1.31-.51,2.12,2.12,0,0,1,.87.2l8.48,3.86L790.13,213l-9.29-4.42a2.24,2.24,0,0,0-1-.24,1.94,1.94,0,0,0-1,.27,19.33,19.33,0,0,1-3.67,2.15Q772.86,211.81,769.44,213.08Z"/></svg>