<svg id="Layer_1" data-name="Layer 1" xmlns="http://www.w3.org/2000/svg" viewBox="0 0 228.65 212.91"><defs><style>.cls-1{fill:#4d71b7;}.cls-2{fill:#a7c5e7;}</style></defs><title>icon-1</title><path class="cls-1" d="M211.15,185.71c-.77.54-1.66.29-2.49.29-14.59,0-29.19,0-43.79,0a5.88,5.88,0,0,0-4.36,1.63,61.06,61.06,0,0,1-12.71,8.91,2.4,2.4,0,0,0-1.44,2.49c.07,4.05,0,8.11,0,12.17,0,1.93-.7,2.65-2.63,2.64q-29.48-.06-59,0c-2,0-2.62-.79-2.58-2.68.08-4.13,0-8.26,0-12.39a2.08,2.08,0,0,0-1.23-2.18,64.92,64.92,0,0,1-13.39-9.39A4.4,4.4,0,0,0,64.41,186q-22.21.06-44.43,0c-.83,0-1.71.25-2.49-.29H65.25c-.07-.47,0-.64-.13-.73-.42-.47-.87-.93-1.31-1.4a66.24,66.24,0,0,1-15.72-25.85c-1-3.06-2.2-4.4-5.66-4.92-9.45-1.4-15.81-7.07-18.2-16.36s.66-17.24,8.22-23.27c1.24-1,1.52-1.76.3-2.89-1.67-1.56-2.06-3.55-2.26-5.78-.64-7,1.27-13.65,2-20.45a4.57,4.57,0,0,0-2.31-4.92c-.79-2.09-2.52-3.55-3.68-5.41a68.16,68.16,0,0,1-4.12-7.19,6.73,6.73,0,0,1,.48-7.07C35,41.65,49.49,26.38,68.34,15.6A79.46,79.46,0,0,1,98.06,6c13.3-1.71,26.2-.45,38.62,4.72A71.93,71.93,0,0,1,160.93,27.4c5.37,5.58,7.74,12.6,8.2,20.46,2.51-.39,5-1.08,7.5-.54,5.91,1.27,9.5,5.41,12.5,10.2,3.82,6.09,5.77,12.88,7.2,19.85a4.76,4.76,0,0,0,.61,1.79c.3,2.39.63,4.78.91,7.17.09.77.6,1.85-.91,1.8-1,0-2.34.51-2.52-1.35s-.65-3.93-.86-5.9c-.16-1.48-.91-1.84-2.28-1.82-4,.07-8,0-12,0-6.19,0-12.39,0-18.58,0-1.84,0-2.22.57-1.66,2.28.63,1.89,1.36,3.73,2.13,5.56a2.71,2.71,0,0,0,2.94,1.85c4.63-.08,9.26,0,13.89,0,.61,0,1.65-.26,1.72.34a14.19,14.19,0,0,1-.09,3.12c0,.45-1.15.25-1.77.25l-42.51-.06a7.21,7.21,0,0,0-3.14.42,107.89,107.89,0,0,1-41.71,9.69c-15.2.51-29.78-1.84-43.21-9.44a4.58,4.58,0,0,0-2.42-.68c-2.35,0-4.7,0-7,0-2.69.06-3.8,1.24-3.84,4,0,2.42,0,4.84,0,7.26,0,4.09.91,5,5,5H189.21c.49,0,1,0,1.49,0,2.49-.09,3.92-1.36,3.9-3.82,0-3.8.48-7.62-.52-11.44l1.16-.06c3,0,2.94,0,2.92,3,0,5.48,0,11-.08,16.44a4.78,4.78,0,0,0,1.34,3.4c5.92,6.85,7.48,14.67,4.09,23.06s-9.94,13-18.92,13.87c-1.86.19-2.74.78-3.29,2.57A69.53,69.53,0,0,1,164.44,184c-.4.41-1.13.69-.87,1.68Zm-34.44-28.3a42.36,42.36,0,0,1-6.7,2.11c-11.79,2.08-23.7,2.88-35.64,3.65-6.54.43-11-1.41-13.41-7.48-1.55-3.89-4.28-5.26-8.35-4.68a3.91,3.91,0,0,0-3.3,1.9c-1.21,2.1-2.44,4.18-3.68,6.26a7.64,7.64,0,0,1-7.07,4A251.67,251.67,0,0,1,68.13,161c-5.52-.81-11.12-1.25-16.48-3.77.13.56.16.77.22,1,.19.54.37,1.08.58,1.61A64.89,64.89,0,0,0,72.6,186.91c15.63,12.33,33.45,17.12,53.06,13.63,24.24-4.32,40.9-18.43,50.58-40.94.3-.7.77-1.4.45-2.23l.12,0Zm-29-78.17H36c0,.3,0,.46.06.55a8.58,8.58,0,0,0,.85,1A61.1,61.1,0,0,0,58.78,94.53c12.71,4.59,25.82,5.26,39.16,4A100.38,100.38,0,0,0,139,85.25,58.18,58.18,0,0,0,147.68,79.24ZM114.22,210.41c8.9,0,17.8,0,26.7,0,1.7,0,2.23-.49,2.14-2.15-.13-2.28,0-4.56,0-6.84,0-2.44,0-2.44-2.29-1.53a70,70,0,0,1-29.84,5,67.87,67.87,0,0,1-23.39-5.26c-1.63-.68-2-.22-1.9,1.35.08,2.41.11,4.84,0,7.25-.09,1.69.46,2.17,2.15,2.15C96.57,210.36,105.4,210.41,114.22,210.41Zm3.59-78.56h0c0,2.85-.08,5.7,0,8.55.08,2.22,1.42,3.67,3.13,3.67s3-1.47,3.13-3.67c.07-1.35,0-2.71,0-4.06,0-.71-.39-1.71.66-2a2.51,2.51,0,0,1,2.39.59,14.51,14.51,0,0,1,2.69,3.82,16.8,16.8,0,0,0,3.07,4.35,3,3,0,0,0,3.91.34c1.36-.92,1.39-2.23.82-3.61a18.09,18.09,0,0,0-3.34-5.43c-.82-.9-.78-1.38.27-2.12,2.82-2,3.68-4.54,2.77-7.6a6.6,6.6,0,0,0-6.55-4.84c-3.06-.11-6.12-.1-9.18-.06-2.69,0-3.76,1.07-3.83,3.75S117.81,129.07,117.81,131.85ZM109.7,144a3,3,0,0,0,2.88-4.3c-2.15-5.64-4.44-11.22-6.67-16.83-.78-2-1.91-3.53-4.28-3.55s-3.46,1.67-4.24,3.59q-2.36,5.82-4.65,11.67a38.68,38.68,0,0,0-2,5.83,2.65,2.65,0,0,0,1.88,3.34A2.56,2.56,0,0,0,96,142.5,10.53,10.53,0,0,0,97.11,140a2.05,2.05,0,0,1,2.5-1.69,8.93,8.93,0,0,0,2.13,0c2.68-.43,4.47.33,5.12,3.24A3.06,3.06,0,0,0,109.7,144Zm-67.6,5.32c-.32-.63-.44-1-.63-1.24a27.37,27.37,0,0,1-4.53-15.94c.07-5,0-10.09,0-15.14,0-.72.46-1.75-.39-2.11-.6-.25-1.26.48-1.84.89a18.73,18.73,0,0,0,7.4,33.54Zm149.7-34.47c0,.72-.09,1.41-.1,2.09,0,4.62-.11,9.24,0,13.86a29,29,0,0,1-4.84,17.77c-.09.13,0,.34-.08.54,7.4-1,13.83-8,14.76-16.15C202.44,125.41,198.07,117.21,191.8,114.88Zm-50.73-26c5.17,0,10.33,0,15.5,0,1.37,0,1.35-.59.88-1.58a27.83,27.83,0,0,1-2.32-7c-.28-1.68-1-1.6-2-.71C149.3,82.9,145.24,85.85,141.07,88.9Zm-100.29,0L35.9,85c-.59,4-.59,4,2.94,4Z"/><path class="cls-2" d="M211.15,185.71H163.57c-.26-1,.47-1.27.87-1.68a69.53,69.53,0,0,0,16.86-28.36c.55-1.79,1.43-2.38,3.29-2.57,9-.9,15.54-5.48,18.92-13.87s1.83-16.21-4.09-23.06a4.78,4.78,0,0,1-1.34-3.4c.08-5.48,0-11,.08-16.44,0-3,.07-3-2.92-3l-1.16.06c1,3.82.47,7.64.52,11.44,0,2.46-1.41,3.73-3.9,3.82-.5,0-1,0-1.49,0H39c-4.11,0-5-.9-5-5,0-2.42,0-4.84,0-7.26,0-2.77,1.15-4,3.84-4,2.35-.05,4.7,0,7,0a4.58,4.58,0,0,1,2.42.68c13.43,7.6,28,10,43.21,9.44a107.89,107.89,0,0,0,41.71-9.69,7.21,7.21,0,0,1,3.14-.42l42.51.06c.62,0,1.72.2,1.77-.25a14.19,14.19,0,0,0,.09-3.12c-.07-.6-1.11-.34-1.72-.34-4.63,0-9.26-.07-13.89,0a2.71,2.71,0,0,1-2.94-1.85c-.77-1.83-1.5-3.67-2.13-5.56-.56-1.71-.18-2.3,1.66-2.28,6.19.07,12.39,0,18.58,0,4,0,8,0,12,0,1.37,0,2.12.34,2.28,1.82.21,2,.66,3.93.86,5.9s1.49,1.32,2.52,1.35c1.51.05,1-1,.91-1.8-.28-2.39-.61-4.78-.91-7.17,4.34,0,8.68-.07,13,0a6.71,6.71,0,0,1,6.92,7q0,46.33,0,92.68A6.59,6.59,0,0,1,211.15,185.71Z"/><path class="cls-2" d="M30.19,79.14a4.57,4.57,0,0,1,2.31,4.92c-.74,6.8-2.65,13.49-2,20.45.2,2.23.59,4.22,2.26,5.78,1.22,1.13.94,1.9-.3,2.89-7.56,6-10.64,13.88-8.22,23.27s8.75,15,18.2,16.36c3.46.52,4.69,1.86,5.66,4.92a66.24,66.24,0,0,0,15.72,25.85c.44.47.89.93,1.31,1.4.08.09.06.26.13.73H17.49a6.6,6.6,0,0,1-5.71-6.85q0-46.34,0-92.67a6.69,6.69,0,0,1,6.89-7C22.51,79.09,26.35,79.14,30.19,79.14Z"/><path class="cls-2" d="M176.69,157.37c.32.83-.15,1.53-.45,2.23-9.68,22.51-26.34,36.62-50.58,40.94-19.61,3.49-37.43-1.3-53.06-13.63a64.89,64.89,0,0,1-20.15-27.13c-.21-.53-.39-1.07-.58-1.61-.06-.19-.09-.4-.22-1,5.36,2.52,11,3,16.48,3.77a251.67,251.67,0,0,0,30.43,2.2,7.64,7.64,0,0,0,7.07-4c1.24-2.08,2.47-4.16,3.68-6.26a3.91,3.91,0,0,1,3.3-1.9c4.07-.58,6.8.79,8.35,4.68,2.43,6.07,6.87,7.91,13.41,7.48,11.94-.77,23.85-1.57,35.64-3.65a42.36,42.36,0,0,0,6.7-2.11Zm-62,21.43a37.93,37.93,0,0,0,4-.63c5.48-1.35,9.33-5.21,10-9.9.17-1.2.18-2.42-1.28-2.73s-2,.73-2.11,2a7.43,7.43,0,0,1-3.42,5.43,13.11,13.11,0,0,1-12,1.5c-3.45-1.18-6-3.31-6.46-7.18-.14-1.15-.64-2-1.9-1.8s-1.63,1.22-1.51,2.38a10.06,10.06,0,0,0,2.1,5.29C105.16,177.08,109.42,178.52,114.72,178.8Z"/><path class="cls-2" d="M147.68,79.24a58.18,58.18,0,0,1-8.65,6A100.38,100.38,0,0,1,97.94,98.48c-13.34,1.31-26.45.64-39.16-4A61.1,61.1,0,0,1,36.92,80.75a8.58,8.58,0,0,1-.85-1c-.07-.09,0-.25-.06-.55Z"/><path class="cls-2" d="M114.22,210.41c-8.82,0-17.65,0-26.48,0-1.69,0-2.24-.46-2.15-2.15.13-2.41.1-4.84,0-7.25-.06-1.57.27-2,1.9-1.35A67.87,67.87,0,0,0,110.9,205a70,70,0,0,0,29.84-5C143,199,143,199,143,201.45c0,2.28-.1,4.56,0,6.84.09,1.66-.44,2.17-2.14,2.15C132,210.36,123.12,210.41,114.22,210.41Z"/><path class="cls-2" d="M117.81,131.85c0-2.78-.06-5.55,0-8.33s1.14-3.72,3.83-3.75c3.06,0,6.12,0,9.18.06a6.6,6.6,0,0,1,6.55,4.84c.91,3.06.05,5.63-2.77,7.6-1.05.74-1.09,1.22-.27,2.12a18.09,18.09,0,0,1,3.34,5.43c.57,1.38.54,2.69-.82,3.61a3,3,0,0,1-3.91-.34,16.8,16.8,0,0,1-3.07-4.35,14.51,14.51,0,0,0-2.69-3.82,2.51,2.51,0,0,0-2.39-.59c-1,.3-.62,1.3-.66,2-.07,1.35,0,2.71,0,4.06-.12,2.2-1.41,3.67-3.13,3.67s-3-1.45-3.13-3.67c-.1-2.85,0-5.7,0-8.55Zm9.45-7v.09c-.71,0-1.42,0-2.12,0-1.21.06-1,1-1,1.74.09.87-.63,2.25.8,2.48a10.25,10.25,0,0,0,5.06-.34,1.92,1.92,0,0,0-.23-3.72A21.47,21.47,0,0,0,127.26,124.8Z"/><path class="cls-2" d="M109.7,144a3.06,3.06,0,0,1-2.84-2.52c-.65-2.91-2.44-3.67-5.12-3.24a8.93,8.93,0,0,1-2.13,0,2.05,2.05,0,0,0-2.5,1.69A10.53,10.53,0,0,1,96,142.5a2.56,2.56,0,0,1-3.43,1.28,2.65,2.65,0,0,1-1.88-3.34,38.68,38.68,0,0,1,2-5.83q2.3-5.85,4.65-11.67c.78-1.92,1.82-3.61,4.24-3.59s3.5,1.59,4.28,3.55c2.23,5.61,4.52,11.19,6.67,16.83A3,3,0,0,1,109.7,144Zm-7.86-15.78h-.49c-.44,1.24-.89,2.48-1.33,3.73-.14.4-.29.92.26,1,1,.22,2.07.47,2.86-.12.62-.47-.06-1.28-.27-1.91C102.56,130.06,102.19,129.16,101.84,128.25Z"/><path class="cls-2" d="M42.1,149.35a18.73,18.73,0,0,1-7.4-33.54c.58-.41,1.24-1.14,1.84-.89.85.36.38,1.39.39,2.11,0,5,.08,10.09,0,15.14a27.37,27.37,0,0,0,4.53,15.94C41.66,148.39,41.78,148.72,42.1,149.35Z"/><path class="cls-2" d="M191.8,114.88c6.27,2.33,10.64,10.53,9.77,18.11-.93,8.11-7.36,15.19-14.76,16.15,0-.2,0-.41.08-.54a29,29,0,0,0,4.84-17.77c-.14-4.62,0-9.24,0-13.86C191.71,116.29,191.77,115.6,191.8,114.88Z"/><path class="cls-2" d="M141.07,88.9c4.17-3.05,8.23-6,12-9.32,1-.89,1.76-1,2,.71a27.83,27.83,0,0,0,2.32,7c.47,1,.49,1.59-.88,1.58C151.4,88.89,146.24,88.9,141.07,88.9Z"/><path class="cls-2" d="M40.78,88.91H38.84c-3.53,0-3.53,0-2.94-4Z"/><polygon class="cls-2" points="176.71 157.41 176.81 157.39 176.69 157.37 176.71 157.41"/><path class="cls-1" d="M114.72,178.8c-5.3-.28-9.56-1.72-12.68-5.63a10.06,10.06,0,0,1-2.1-5.29c-.12-1.16.14-2.21,1.51-2.38s1.76.65,1.9,1.8c.5,3.87,3,6,6.46,7.18a13.11,13.11,0,0,0,12-1.5,7.43,7.43,0,0,0,3.42-5.43c.15-1.28.6-2.33,2.11-2s1.45,1.53,1.28,2.73c-.65,4.69-4.5,8.55-10,9.9A37.93,37.93,0,0,1,114.72,178.8Z"/><path class="cls-1" d="M127.26,124.8a21.47,21.47,0,0,1,2.53.26,1.92,1.92,0,0,1,.23,3.72,10.25,10.25,0,0,1-5.06.34c-1.43-.23-.71-1.61-.8-2.48-.08-.72-.24-1.68,1-1.74.7,0,1.41,0,2.12,0Z"/><path class="cls-1" d="M101.84,128.25c.35.91.72,1.81,1,2.74.21.63.89,1.44.27,1.91-.79.59-1.9.34-2.86.12-.55-.12-.4-.64-.26-1,.44-1.25.89-2.49,1.33-3.73Z"/></svg>